<?xml version="1.0" encoding="UTF-8" standalone="no"?>
<svg
   xmlns:dc="http://purl.org/dc/elements/1.1/"
   xmlns:cc="http://creativecommons.org/ns#"
   xmlns:rdf="http://www.w3.org/1999/02/22-rdf-syntax-ns#"
   xmlns:svg="http://www.w3.org/2000/svg"
   xmlns="http://www.w3.org/2000/svg"
   xmlns:sodipodi="http://sodipodi.sourceforge.net/DTD/sodipodi-0.dtd"
   xmlns:inkscape="http://www.inkscape.org/namespaces/inkscape"
   viewBox="0 0 48 48"
   width="240px"
   height="240px"
   version="1.1"
   id="svg66"
   sodipodi:docname="android.svg"
   inkscape:version="1.0.2 (e86c870879, 2021-01-15)">
  <metadata
     id="metadata72">
    <rdf:RDF>
      <cc:Work
         rdf:about="">
        <dc:format>image/svg+xml</dc:format>
        <dc:type
           rdf:resource="http://purl.org/dc/dcmitype/StillImage" />
      </cc:Work>
    </rdf:RDF>
  </metadata>
  <defs
     id="defs70" />
  <sodipodi:namedview
     pagecolor="#ffffff"
     bordercolor="#666666"
     borderopacity="1"
     objecttolerance="10"
     gridtolerance="10"
     guidetolerance="10"
     inkscape:pageopacity="0"
     inkscape:pageshadow="2"
     inkscape:window-width="2532"
     inkscape:window-height="1026"
     id="namedview68"
     showgrid="false"
     inkscape:zoom="4"
     inkscape:cx="130.55788"
     inkscape:cy="58.073255"
     inkscape:window-x="909"
     inkscape:window-y="226"
     inkscape:window-maximized="0"
     inkscape:current-layer="svg66" />
  <path
     fill="#30dc80"
     d="M24,14.088C11.427,14.088,1.108,23.716,0,36h48C46.892,23.716,36.573,14.088,24,14.088z M33.179,27.079c0-1.104,0.895-1.999,1.999-1.999c1.104,0,1.999,0.895,1.999,1.999c0,1.104-0.895,1.999-1.999,1.999 C34.074,29.078,33.179,28.183,33.179,27.079z M12.822,29.078c-1.104,0-1.999-0.895-1.999-1.999c0-1.104,0.895-1.999,1.999-1.999 s1.999,0.895,1.999,1.999C14.821,28.183,13.926,29.078,12.822,29.078z"
     id="path60" />
  <path
     fill="#30dc80"
     d="M34.038,19.313c-0.14,0-0.281-0.035-0.41-0.11c-0.393-0.227-0.527-0.729-0.301-1.122l5.197-9.008 c0.227-0.394,0.729-0.529,1.122-0.301c0.393,0.227,0.527,0.729,0.301,1.122l-5.197,9.008C34.598,19.166,34.322,19.313,34.038,19.313 z"
     id="path62" />
  <path
     fill="#30dc80"
     d="M13.962,19.313c-0.284,0-0.56-0.148-0.712-0.411L8.054,9.894C7.827,9.501,7.962,8.999,8.354,8.772 c0.392-0.228,0.895-0.093,1.122,0.301l5.197,9.008c0.227,0.394,0.092,0.896-0.301,1.122C14.243,19.278,14.102,19.313,13.962,19.313z"
     id="path64" />
  <path
     style="fill:#212529;fill-opacity:1;stroke-width:0.176777"
     d="m 43.764209,42.386856 c -2.921977,0.01962 -5.503002,2.928718 -4.835809,5.853311 1.015112,2.869405 2.820504,5.391439 4.234963,8.073839 5.522398,9.734077 11.286128,19.331439 16.626414,29.16217 -19.799335,11.363011 -36.327501,28.358964 -47.03055,48.530374 -7.5823569,14.2274 -12.28479648,30.01073 -13.6688523,46.06046 0.27794352,1.50005 2.1806171,0.77368 3.2538815,0.94247 79.2040148,0 158.4080338,0 237.6120538,0 1.54307,-0.27182 0.80347,-2.03683 0.76177,-3.10175 -1.49797,-13.10089 -4.88724,-26.02105 -10.5267,-37.96252 -10.48774,-22.67648 -28.16562,-41.929654 -49.82013,-54.381965 -0.38539,-0.292305 0.42946,-0.918936 0.46188,-1.313113 6.39371,-11.528641 13.26875,-22.815488 19.59527,-34.395841 1.53269,-2.332607 0.52035,-5.795407 -2.05363,-6.902578 -2.30508,-1.290304 -5.48616,-0.245731 -6.53658,2.191169 -7.07876,11.772632 -13.81308,23.747982 -20.71708,35.623162 C 157.80976,74.574369 143.34761,70.896293 128.7131,69.83148 121.87755,69.602442 115.01069,69.479067 108.191,70.078499 94.622879,71.473648 81.252628,74.991843 68.882037,80.766388 61.76523,68.566923 54.895702,56.219178 47.539704,44.161529 46.678067,43.005745 45.196251,42.346628 43.764209,42.386856 Z M 176.07432,126.36683 c 4.78206,0.0213 9.17026,4.40807 8.82086,9.25485 0.0741,4.92342 -4.63739,9.17201 -9.51002,8.80607 -4.86468,-0.16618 -9.01564,-4.8555 -8.49426,-9.72099 0.29548,-4.67337 4.49177,-8.50822 9.18342,-8.33993 z m -111.713554,0.004 c 4.595005,0.003 8.701746,4.03952 8.756316,8.63927 0.174277,3.30971 -1.604132,6.59378 -4.518508,8.19802 -3.489735,2.1472 -8.350305,1.38967 -11.086218,-1.64547 -3.311629,-3.39158 -3.240474,-9.52745 0.386787,-12.67443 1.70399,-1.66041 4.083457,-2.586 6.461623,-2.51739 z"
     id="path961"
     transform="scale(0.2)" />
</svg>
