<?xml version="1.0" encoding="UTF-8" standalone="no"?>
<svg
   xmlns:dc="http://purl.org/dc/elements/1.1/"
   xmlns:cc="http://creativecommons.org/ns#"
   xmlns:rdf="http://www.w3.org/1999/02/22-rdf-syntax-ns#"
   xmlns:svg="http://www.w3.org/2000/svg"
   xmlns="http://www.w3.org/2000/svg"
   xmlns:sodipodi="http://sodipodi.sourceforge.net/DTD/sodipodi-0.dtd"
   xmlns:inkscape="http://www.inkscape.org/namespaces/inkscape"
   viewBox="0 0 48 48"
   width="480px"
   height="480px"
   version="1.1"
   id="svg1005"
   sodipodi:docname="bootstrap.svg"
   inkscape:version="1.0.2 (e86c870879, 2021-01-15)">
  <metadata
     id="metadata1011">
    <rdf:RDF>
      <cc:Work
         rdf:about="">
        <dc:format>image/svg+xml</dc:format>
        <dc:type
           rdf:resource="http://purl.org/dc/dcmitype/StillImage" />
      </cc:Work>
    </rdf:RDF>
  </metadata>
  <defs
     id="defs1009" />
  <sodipodi:namedview
     pagecolor="#ffffff"
     bordercolor="#666666"
     borderopacity="1"
     objecttolerance="10"
     gridtolerance="10"
     guidetolerance="10"
     inkscape:pageopacity="0"
     inkscape:pageshadow="2"
     inkscape:window-width="2532"
     inkscape:window-height="1026"
     id="namedview1007"
     showgrid="false"
     inkscape:zoom="1.4625"
     inkscape:cx="127.52137"
     inkscape:cy="47.521368"
     inkscape:window-x="909"
     inkscape:window-y="226"
     inkscape:window-maximized="0"
     inkscape:current-layer="svg1005" />
  <path
     fill="#673ab7"
     d="M42,37c0,2.762-2.238,5-5,5H11c-2.761,0-5-2.238-5-5V11c0-2.762,2.239-5,5-5h26c2.762,0,5,2.238,5,5 V37z"
     id="path1001" />
  <path
     fill="#fff"
     d="M33.03,25.6c-0.65-0.9-1.59-1.52-2.8-1.85c0,0,1.02-0.37,1.94-1.75c0.55-0.88,0.83-1.94,0.83-3.18 c0-2.15-0.78-3.8-2.34-4.93C29.1,12.76,27.34,12,24.35,12H15v24h10.43c2.83-0.02,4.96-0.63,6.41-1.8c1.44-1.19,2.16-2.95,2.16-5.3 C34,27.6,33.68,26.5,33.03,25.6z M21,16c0,0,4.17,0,4.25,0c1.52,0,2.75,1.23,2.75,2.75c0,1.52-1.23,2.75-2.75,2.75 c-0.08,0-4.25,0-4.25,0V16z M26,32h-5v-6h5c1.66,0,3,1.34,3,3C29,30.66,27.66,32,26,32z"
     id="path1003" />
  <path
     style="fill:#212529;stroke-width:0.683761"
     d="m 99.849092,59.907853 c -15.308628,4.029437 -29.270805,14.258948 -35.75187,28.963675 -5.268139,9.008513 -3.558967,19.993352 -4.317641,29.955722 -0.567163,72.10794 -0.174532,144.22158 -0.230778,216.33166 0.39839,16.27085 -0.576492,32.69028 1.655791,48.8515 4.895896,16.13591 17.960387,29.76408 34.300131,34.47207 10.188645,2.72135 20.951285,1.22419 31.375485,1.78146 84.42195,0.1428 168.856,-0.0209 253.2707,-0.17179 15.30863,-4.02944 29.27081,-14.25895 35.75187,-28.96368 5.26814,-9.00851 3.55896,-19.99335 4.31764,-29.95572 0.5677,-71.86265 0.17176,-143.731 0.23656,-215.5958 -0.39224,-16.50409 0.5656,-33.15467 -1.69362,-49.548638 -1.69355,-6.170282 -5.04469,-11.893455 -8.74066,-17.081998 -7.40046,-9.107748 -17.57545,-15.730738 -28.93247,-18.718551 -12.61234,-0.87616 -25.47601,-0.120733 -38.18425,-0.373329 -81.01747,0.03564 -162.04675,-0.07124 -243.056888,0.05342 z M 202.90465,121.01229 c 20.9823,0.37523 42.22323,-0.81277 62.99082,1.4111 22.41507,3.74349 44.91432,15.47602 56.53108,35.68425 7.89015,15.36938 8.52221,33.99618 3.7313,50.30582 -2.62876,10.05165 -10.00688,17.46924 -17.11939,24.57131 -2.40984,1.86207 -3.29212,5.97963 0.0694,7.40252 13.00377,5.97434 24.25374,17.00463 27.7484,31.22195 4.47745,16.78895 2.50606,35.14896 -4.34695,51.0203 -7.79576,17.53738 -25.61216,28.08945 -43.53706,32.54878 -16.80993,4.99621 -34.45457,2.91239 -51.78466,3.54898 -28.8145,0.13066 -57.62919,0.21839 -86.44377,0.32986 0,-79.3523 0,-158.70459 0,-238.05689 17.38693,0.004 34.77386,0.008 52.16079,0.012 z"
     id="path1013"
     transform="scale(0.1)" />
  <path
     style="fill:#212529;stroke-width:0.683761"
     d="m 209.82505,159.64209 c -0.5288,18.38824 -0.075,36.94702 -0.22703,55.40065 2.91458,2.28954 8.14219,0.36065 11.94044,0.99308 12.4055,-0.31586 24.97451,0.6569 37.27297,-1.22145 12.7934,-2.7409 23.07931,-15.52565 21.45299,-28.78739 0.50687,-9.87517 -6.33159,-18.19252 -14.20806,-23.26923 -8.34251,-4.84663 -18.46982,-2.47868 -27.61469,-3.24417 -9.50717,0.15825 -19.24936,-0.66061 -28.61662,0.12851 z"
     id="path1015"
     transform="scale(0.1)" />
  <path
     style="fill:#212529;stroke-width:0.683761"
     d="m 209.81971,259.54327 c -0.51674,19.96238 -0.0736,40.08928 -0.22169,60.11485 2.91458,2.29006 8.14219,0.36569 11.94044,1.00027 15.47284,-0.38549 31.07942,0.88399 46.46635,-1.09909 17.84731,-4.05682 28.14565,-26.57166 19.48718,-42.74974 -5.18358,-10.88625 -17.04448,-18.22262 -29.17041,-17.35607 -15.90371,-0.44735 -31.81567,-0.22965 -47.72329,-0.28282 l -0.61677,0.29517 z"
     id="path1017"
     transform="scale(0.1)" />
  <path
     style="fill:#212529;stroke-width:0.683761"
     d="m 240,59.180021 c -47.18614,0.05034 -94.39026,-0.08815 -141.565171,0.08013 -16.956386,5.625417 -32.656618,18.451974 -37.516802,36.148977 -2.304908,17.070822 -1.249502,34.406372 -1.875914,51.587352 -0.579629,74.98519 -0.517285,149.98323 0.607994,224.96265 -0.564169,10.40603 3.183085,20.54821 9.51923,28.70326 9.596704,13.2099 25.9537,21.2349 42.335703,19.94922 90.01692,0.5388 180.055,0.28319 270.06147,0.1456 16.77114,-5.58879 32.20797,-18.13974 37.36645,-35.51415 2.45024,-16.06607 1.33955,-32.44415 1.96147,-48.64189 0.6941,-75.624 0.56325,-151.26134 -0.50189,-226.88105 0.92093,-14.520408 -5.71893,-28.86734 -16.79087,-38.151523 -6.84778,-5.783252 -15.06053,-10.497224 -23.77261,-12.397832 -46.60969,0.0031 -93.21937,0.0062 -139.82906,0.0093 z M 198.80209,121.6867 c 20.9522,0.29421 42.11273,-0.42618 62.90546,1.18828 22.59988,2.32996 44.99801,13.22004 57.93454,32.26124 6.93551,10.48299 9.2763,23.55964 8.40966,36.10546 0.14884,12.70074 -4.23437,25.95407 -13.60211,34.94194 -2.76019,3.57416 -7.33551,6.52006 -8.41599,11.04528 1.7438,4.73243 7.80938,5.64737 11.31678,8.76202 9.43805,7.15438 17.47559,16.85916 19.49118,28.85417 3.42569,17.52769 1.20627,36.52947 -7.53739,52.30769 -9.20404,14.0722 -24.29064,23.56554 -40.5387,27.36803 -13.02283,3.77005 -26.77688,2.51158 -40.15143,3.26208 -32.39216,0.57688 -64.79062,0.4885 -97.18647,0.53175 0,-78.87688 0,-157.75374 0,-236.63061 15.79148,8.9e-4 31.58297,0.002 47.37447,0.003 z"
     id="path1580"
     transform="scale(0.1)" />
</svg>
