<?xml version="1.0" encoding="UTF-8" standalone="no"?>
<svg
   xmlns:dc="http://purl.org/dc/elements/1.1/"
   xmlns:cc="http://creativecommons.org/ns#"
   xmlns:rdf="http://www.w3.org/1999/02/22-rdf-syntax-ns#"
   xmlns:svg="http://www.w3.org/2000/svg"
   xmlns="http://www.w3.org/2000/svg"
   xmlns:sodipodi="http://sodipodi.sourceforge.net/DTD/sodipodi-0.dtd"
   xmlns:inkscape="http://www.inkscape.org/namespaces/inkscape"
   fill="#000000"
   viewBox="0 0 50 50"
   width="500px"
   height="500px"
   version="1.1"
   id="svg1650"
   sodipodi:docname="c.svg"
   inkscape:version="1.0.2 (e86c870879, 2021-01-15)">
  <metadata
     id="metadata1656">
    <rdf:RDF>
      <cc:Work
         rdf:about="">
        <dc:format>image/svg+xml</dc:format>
        <dc:type
           rdf:resource="http://purl.org/dc/dcmitype/StillImage" />
        <dc:title></dc:title>
      </cc:Work>
    </rdf:RDF>
  </metadata>
  <defs
     id="defs1654" />
  <sodipodi:namedview
     pagecolor="#ffffff"
     bordercolor="#666666"
     borderopacity="1"
     objecttolerance="10"
     gridtolerance="10"
     guidetolerance="10"
     inkscape:pageopacity="0"
     inkscape:pageshadow="2"
     inkscape:window-width="2532"
     inkscape:window-height="1026"
     id="namedview1652"
     showgrid="false"
     inkscape:zoom="1.404"
     inkscape:cx="132.83476"
     inkscape:cy="247.86324"
     inkscape:window-x="909"
     inkscape:window-y="226"
     inkscape:window-maximized="0"
     inkscape:current-layer="svg1650"
     inkscape:document-rotation="0" />
  <path
     d="M 43.910156 12.003906 L 27.070313 2.539063 C 25.792969 1.824219 24.207031 1.824219 22.929688 2.539063 L 6.089844 12.003906 C 4.800781 12.726563 4 14.082031 4 15.535156 L 4 34.464844 C 4 35.917969 4.800781 37.273438 6.089844 37.996094 L 22.929688 47.460938 C 23.570313 47.820313 24.285156 48 25 48 C 25.714844 48 26.429688 47.820313 27.070313 47.460938 L 43.910156 37.996094 C 45.199219 37.273438 46 35.917969 46 34.464844 L 46 15.535156 C 46 14.082031 45.199219 12.726563 43.910156 12.003906 Z M 25 37 C 18.382813 37 13 31.617188 13 25 C 13 18.382813 18.382813 13 25 13 C 28.78125 13 32.273438 14.753906 34.542969 17.742188 L 30.160156 20.277344 C 28.84375 18.835938 26.972656 18 25 18 C 21.140625 18 18 21.140625 18 25 C 18 28.859375 21.140625 32 25 32 C 26.972656 32 28.84375 31.164063 30.160156 29.722656 L 34.542969 32.257813 C 32.273438 35.246094 28.78125 37 25 37 Z M 37 26 L 35 26 L 35 28 L 33 28 L 33 26 L 31 26 L 31 24 L 33 24 L 33 22 L 35 22 L 35 24 L 37 24 Z M 44 26 L 42 26 L 42 28 L 40 28 L 40 26 L 38 26 L 38 24 L 40 24 L 40 22 L 42 22 L 42 24 L 44 24 Z"
     id="path1648" />
  <path
     style="fill:#212529;stroke-width:0.712251"
     d="m 247.59615,19.734353 c -11.38254,-0.633088 -20.44693,7.404106 -30.17775,11.974307 -51.41276,28.4113 -102.78199,56.921858 -153.645895,86.30476 -10.296249,5.72805 -20.133532,14.68721 -22.832,26.57626 -2.077136,20.97107 -0.98155,42.1228 -1.340388,63.16912 0.226725,46.14758 -0.524457,92.30986 0.522304,138.44787 -0.151647,7.72167 1.679627,15.55317 6.749797,21.56371 8.743689,11.83501 23.066345,17.19184 35.127862,24.8033 50.30251,28.32893 100.48894,56.89571 151.15986,84.551 12.15966,5.30827 27.06532,4.46635 38.26652,-2.78978 54.1459,-29.52145 107.91063,-59.75184 161.45441,-90.34874 11.09236,-5.89805 22.02877,-14.47362 25.84615,-26.94684 2.40457,-16.39166 1.22915,-33.08599 1.65371,-49.60436 -0.16742,-50.73819 0.4899,-101.48757 -0.43927,-152.21856 0.0574,-7.88688 -1.15279,-16.09063 -6.34209,-22.36217 C 444.9809,120.70994 430.48709,115.25959 418.29694,107.60587 367.18353,78.860828 316.26071,49.747717 264.56358,22.061688 259.28592,19.478522 253.31501,19.68226 247.59615,19.734353 Z m 2.65147,111.528447 c 20.00115,-0.7294 39.95059,4.71068 57.39461,14.42446 14.02259,7.80185 26.88052,18.33402 36.35122,31.33904 -13.71836,8.71153 -28.14394,16.65625 -42.21338,24.92877 -11.24319,-11.4371 -26.08313,-20.07186 -42.19529,-21.79877 -11.27833,-0.27998 -23.02805,-1.20488 -33.62695,3.51308 -26.84598,9.43603 -46.1714,36.40195 -46.53325,64.85604 -0.97865,29.30541 18.52761,57.70584 46.05146,67.64851 8.83931,3.99229 18.58286,4.10134 28.08798,3.81383 14.85853,0.59804 29.0814,-6.22676 40.61779,-15.10354 2.67825,-2.11784 5.10862,-4.52161 7.59965,-6.85042 13.98378,8.31002 28.68999,16.15042 42.1786,24.88148 -6.58313,9.55342 -15.59933,17.36678 -24.87313,24.26521 -19.18694,13.36438 -42.35402,22.00706 -65.92714,21.44687 -11.26891,0.6585 -22.34475,-0.10886 -33.14714,-3.22399 -41.58515,-10.41306 -75.962,-45.17027 -85.79791,-87.03993 -11.83913,-45.26588 6.63352,-96.47798 44.47421,-123.84358 16.7137,-12.09983 36.59188,-20.91419 57.33034,-22.77435 4.75112,-0.34726 9.4673,-0.47889 14.22833,-0.48271 z m 89.8521,89.46676 c 3.44109,0.85513 11.12923,-2.53679 9.32742,3.56125 0.24102,5.36141 -0.49028,10.94427 0.3756,16.16336 6.44851,0.50837 13.05715,0.0737 19.56742,0.21841 0,6.21828 0,12.43656 0,18.65484 -6.54705,0.24734 -13.31931,-0.49413 -19.72462,0.37561 -0.50837,6.44851 -0.0737,13.05714 -0.2184,19.56741 -6.21829,0 -12.43656,0 -18.65485,0 -0.24733,-6.54705 0.49413,-13.31931 -0.3756,-19.72461 -6.44851,-0.50837 -13.05715,-0.0737 -19.56742,-0.21841 0,-6.21828 0,-12.43656 0,-18.65484 6.54705,-0.24734 13.31931,0.49413 19.72462,-0.37561 0.50837,-6.44851 0.0737,-13.05714 0.2184,-19.56741 3.10914,0 6.21829,0 9.32743,0 z m 69.80056,0 c 3.4411,0.85513 11.12924,-2.53679 9.32743,3.56125 0.24102,5.36141 -0.49028,10.94427 0.3756,16.16336 6.44851,0.50837 13.05715,0.0737 19.56742,0.21841 0,6.21828 0,12.43656 0,18.65484 -6.54705,0.24734 -13.31931,-0.49413 -19.72462,0.37561 -0.50837,6.44851 -0.0737,13.05714 -0.2184,19.56741 -6.21829,0 -12.43656,0 -18.65485,0 -0.24733,-6.54705 0.49413,-13.31931 -0.3756,-19.72461 -6.44851,-0.50837 -13.05715,-0.0737 -19.56742,-0.21841 0,-6.21828 0,-12.43656 0,-18.65484 6.54705,-0.24734 13.31931,0.49413 19.72462,-0.37561 0.50837,-6.44851 0.0737,-13.05714 0.2184,-19.56741 3.10914,0 6.21829,0 9.32742,0 z"
     id="path2219"
     transform="scale(0.1)" />
  <path
     style="fill:#212529;stroke-width:0.712251"
     d="m 329.43265,219.37461 c -1.38769,6.2169 -0.19063,12.95141 -0.59262,19.3657 -6.4238,0.37804 -13.15717,-0.7689 -19.37822,0.60792 -1.32786,6.4147 -0.18185,13.312 -0.56479,19.91103 1.80987,4.00264 7.73145,1.1342 11.25968,2.00042 3.85328,0.46567 10.7559,-2.11801 8.68333,4.2735 0.33915,5.0072 -0.73359,10.30101 0.60792,15.10473 6.4147,1.32785 13.312,0.18184 19.91103,0.56479 4.00264,-1.80988 1.1342,-7.73145 2.00042,-11.25968 0.46567,-3.85328 -2.118,-10.7559 4.2735,-8.68334 5.0072,-0.33915 10.30101,0.7336 15.10473,-0.60792 1.32785,-6.4147 0.18184,-13.31199 0.56479,-19.91102 -1.80988,-4.00265 -7.73145,-1.13421 -11.25968,-2.00043 -3.86553,-0.46316 -10.70859,2.1121 -8.77123,-4.27263 -0.44306,-4.89423 0.5404,-10.10752 -0.90537,-14.77729 -6.2841,-1.33061 -13.02871,-0.41298 -19.48673,-0.89449 -0.48225,0.1929 -0.96451,0.38581 -1.44676,0.57871 z"
     id="path126"
     transform="scale(0.1)" />
  <path
     style="fill:#212529;stroke-width:0.712251"
     d="m 399.23322,219.37461 c -1.38769,6.2169 -0.19063,12.95141 -0.59262,19.3657 -6.4238,0.37804 -13.15717,-0.7689 -19.37822,0.60792 -1.32786,6.4147 -0.18185,13.312 -0.5648,19.91103 1.80988,4.00264 7.73146,1.1342 11.25969,2.00042 3.85328,0.46567 10.7559,-2.11801 8.68333,4.2735 0.33915,5.0072 -0.73359,10.30101 0.60792,15.10473 6.4147,1.32785 13.312,0.18184 19.91103,0.56479 4.00264,-1.80988 1.1342,-7.73145 2.00042,-11.25968 0.46567,-3.85328 -2.118,-10.7559 4.2735,-8.68334 5.0072,-0.33915 10.30101,0.7336 15.10473,-0.60792 1.32785,-6.4147 0.18184,-13.31199 0.56479,-19.91102 -1.80988,-4.00265 -7.73145,-1.13421 -11.25968,-2.00043 -3.86553,-0.46316 -10.70859,2.1121 -8.77123,-4.27263 -0.44306,-4.89423 0.5404,-10.10752 -0.90537,-14.77729 -6.2841,-1.33061 -13.02871,-0.41298 -19.48673,-0.89449 -0.48225,0.1929 -0.96451,0.38581 -1.44676,0.57871 z"
     id="path128"
     transform="scale(0.1)" />
</svg>
