<?xml version="1.0" encoding="UTF-8" standalone="no"?>
<svg
   xmlns:dc="http://purl.org/dc/elements/1.1/"
   xmlns:cc="http://creativecommons.org/ns#"
   xmlns:rdf="http://www.w3.org/1999/02/22-rdf-syntax-ns#"
   xmlns:svg="http://www.w3.org/2000/svg"
   xmlns="http://www.w3.org/2000/svg"
   xmlns:sodipodi="http://sodipodi.sourceforge.net/DTD/sodipodi-0.dtd"
   xmlns:inkscape="http://www.inkscape.org/namespaces/inkscape"
   fill="#000000"
   viewBox="0 0 50 50"
   width="500px"
   height="500px"
   version="1.1"
   id="svg2319"
   sodipodi:docname="cloud.svg"
   inkscape:version="1.0.2 (e86c870879, 2021-01-15)">
  <metadata
     id="metadata2325">
    <rdf:RDF>
      <cc:Work
         rdf:about="">
        <dc:format>image/svg+xml</dc:format>
        <dc:type
           rdf:resource="http://purl.org/dc/dcmitype/StillImage" />
      </cc:Work>
    </rdf:RDF>
  </metadata>
  <defs
     id="defs2323" />
  <sodipodi:namedview
     pagecolor="#ffffff"
     bordercolor="#666666"
     borderopacity="1"
     objecttolerance="10"
     gridtolerance="10"
     guidetolerance="10"
     inkscape:pageopacity="0"
     inkscape:pageshadow="2"
     inkscape:window-width="2532"
     inkscape:window-height="1026"
     id="namedview2321"
     showgrid="false"
     inkscape:zoom="1.404"
     inkscape:cx="250"
     inkscape:cy="248.93162"
     inkscape:window-x="909"
     inkscape:window-y="226"
     inkscape:window-maximized="0"
     inkscape:current-layer="svg2319" />
  <path
     d="M 15.6875 4 C 14.085938 4 12.707031 4.886719 11.90625 6.1875 L 6.8125 15.3125 L 11.1875 23 L 17.5 12 L 41.3125 12 L 38.09375 6.1875 C 37.292969 4.886719 35.914063 4 34.3125 4 Z M 18.59375 14 L 12.3125 25 L 17.40625 33.90625 L 18.59375 36 L 31.3125 36 L 37.6875 25 L 31.3125 14 Z M 33.6875 14 L 40 25 L 39.6875 25.5 L 27.90625 46 L 34.3125 46 C 35.914063 46 37.292969 45.113281 38.09375 43.8125 L 47.40625 27.3125 C 48.207031 25.914063 48.207031 24.113281 47.40625 22.8125 L 42.5 14 Z M 5.59375 17.40625 L 2.5 22.8125 C 1.699219 24.210938 1.699219 25.914063 2.5 27.3125 L 11.8125 43.8125 C 12.613281 45.210938 13.992188 46 15.59375 46 L 25.5 46 L 30.1875 38 L 17.5 38 L 15.8125 35 L 15.6875 34.8125 L 10 25 Z M 25 20 C 27.800781 20 30 22.199219 30 25 C 30 27.800781 27.800781 30 25 30 C 22.199219 30 20 27.800781 20 25 C 20 22.199219 22.199219 20 25 20 Z"
     id="path2317" />
  <path
     style="fill:#212529;stroke-width:0.712251"
     d="m 231.75831,39.154314 c -27.8123,0.290103 -55.67452,-0.242837 -83.45157,1.189403 -13.5299,2.924645 -25.55956,12.165611 -31.39898,24.793519 -16.53836,29.022713 -33.257801,57.977924 -48.750097,87.569594 2.016731,6.07327 6.19033,11.56928 9.042566,17.39449 10.469488,18.40375 20.415275,37.15869 31.523731,55.16884 2.98644,2.86846 6.79858,-0.42756 8.07519,-3.39171 20.02766,-33.12517 38.72717,-67.04133 58.17804,-100.50926 79.17374,-0.22393 158.35354,0.0171 237.52309,-0.68165 2.32203,-1.95931 -1.88065,-5.01186 -2.24943,-7.26996 C 399.6114,94.357552 389.2999,75.072446 377.90464,56.461171 369.41063,46.248385 356.32981,39.115643 342.8105,39.854919 305.80073,39.053083 268.77485,39.15912 231.75831,39.154314 Z"
     id="path2327"
     transform="scale(0.1)" />
  <path
     style="fill:#212529;stroke-width:0.712251"
     d="m 185.13232,140.17289 c -20.60589,36.30169 -41.66706,72.37878 -61.88791,108.87837 3.24411,8.85472 8.81679,16.83841 13.15282,25.23825 16.13127,28.58996 32.53442,57.0255 48.80326,85.53761 8.08918,1.18005 16.7692,0.16422 25.08457,0.50358 34.27661,0 68.55321,0 102.82981,0 5.0674,-6.41739 8.54491,-14.42717 13.00375,-21.45407 16.97958,-29.48841 34.30588,-58.78722 50.87763,-88.50381 -2.01555,-5.86809 -6.1903,-11.10504 -8.98363,-16.72921 -17.88954,-31.22509 -36.00674,-62.32104 -54.02135,-93.4749 -8.09163,-1.17051 -16.7668,-0.16269 -25.08179,-0.49941 -34.30303,0 -68.60607,0 -102.9091,0 l -0.61609,0.35741 z m 65.01931,60.70685 c 24.35391,-0.85408 47.22457,19.64764 48.67239,44.02045 1.53916,14.22866 -2.85287,29.32173 -13.49915,39.3104 -7.24028,8.05439 -17.6055,12.96687 -28.21627,14.52711 -13.29743,1.75373 -27.35514,-1.38152 -37.75903,-10.08558 -12.41486,-9.71352 -19.74029,-25.72378 -18.32933,-41.46357 0.21074,-24.86043 22.99243,-46.67644 47.6749,-46.29768 0.48549,-0.003 0.97099,-0.008 1.45649,-0.0111 z"
     id="path2329"
     transform="scale(0.1)" />
  <path
     style="fill:#212529;stroke-width:0.712251"
     d="m 338.96178,140.04491 c -1.04321,4.8434 3.50485,8.71682 5.08032,12.99585 17.40027,32.00963 36.49794,63.07633 53.59829,95.23704 2.55783,3.48951 -2.13807,6.477 -3.18843,9.67798 -38.24338,66.31423 -76.45678,132.65624 -113.87526,199.43577 -2.07704,5.48858 5.52502,2.72324 8.43572,3.36349 20.62946,-0.39882 41.35336,0.86714 61.92237,-1.02781 13.82417,-2.39721 26.08998,-12.0219 32.0153,-24.71492 31.49346,-54.93257 62.9555,-109.89676 93.4719,-165.37673 5.48876,-12.78098 6.05624,-28.49668 -1.60168,-40.55879 -15.76084,-29.93279 -32.6104,-59.2757 -48.94864,-88.89416 -7.84539,-1.20247 -16.2994,-0.16772 -24.37789,-0.51333 -20.5834,0 -41.16679,0 -61.75019,0 l -0.642,0.30844 z"
     id="path2331"
     transform="scale(0.1)" />
  <path
     style="fill:#212529;stroke-width:0.712251"
     d="m 55.741965,176.83432 c -4.239498,1.66162 -5.439479,7.16754 -8.093039,10.50967 -9.254635,16.45894 -19.37365,32.54918 -27.160589,49.76316 -4.088084,12.69601 -2.048155,27.08751 5.411436,38.1541 31.16342,56.20888 62.633018,112.26084 95.059417,167.75132 6.27483,9.48509 17.36213,15.3763 28.43704,17.06935 35.10571,0.91281 70.23158,0.49478 105.34608,0.67613 5.09326,-6.39824 8.61354,-14.3843 13.10483,-21.3902 11.42793,-19.50667 22.85484,-39.01393 34.2821,-58.521 -1.17473,-3.43312 -7.66108,-0.60572 -10.82828,-1.56117 C 252.531,379.06812 213.76105,378.85022 174.9911,378.6322 139.52442,316.54333 103.64479,254.68566 67.434405,193.02876 63.779181,187.7418 61.300438,181.27178 56.50986,176.92892 c -0.244665,-0.0901 -0.509745,-0.10434 -0.767895,-0.0946 z"
     id="path2333"
     transform="scale(0.1)" />
</svg>
