<?xml version="1.0" encoding="UTF-8" standalone="no"?>
<svg
   xmlns:dc="http://purl.org/dc/elements/1.1/"
   xmlns:cc="http://creativecommons.org/ns#"
   xmlns:rdf="http://www.w3.org/1999/02/22-rdf-syntax-ns#"
   xmlns:svg="http://www.w3.org/2000/svg"
   xmlns="http://www.w3.org/2000/svg"
   xmlns:sodipodi="http://sodipodi.sourceforge.net/DTD/sodipodi-0.dtd"
   xmlns:inkscape="http://www.inkscape.org/namespaces/inkscape"
   fill="#000000"
   viewBox="0 0 30 30"
   width="480px"
   height="480px"
   version="1.1"
   id="svg2417"
   sodipodi:docname="css3.svg"
   inkscape:version="1.0.2 (e86c870879, 2021-01-15)">
  <metadata
     id="metadata2423">
    <rdf:RDF>
      <cc:Work
         rdf:about="">
        <dc:format>image/svg+xml</dc:format>
        <dc:type
           rdf:resource="http://purl.org/dc/dcmitype/StillImage" />
      </cc:Work>
    </rdf:RDF>
  </metadata>
  <defs
     id="defs2421" />
  <sodipodi:namedview
     pagecolor="#ffffff"
     bordercolor="#666666"
     borderopacity="1"
     objecttolerance="10"
     gridtolerance="10"
     guidetolerance="10"
     inkscape:pageopacity="0"
     inkscape:pageshadow="2"
     inkscape:window-width="2532"
     inkscape:window-height="1026"
     id="namedview2419"
     showgrid="false"
     inkscape:zoom="1.4625"
     inkscape:cx="240"
     inkscape:cy="238.97436"
     inkscape:window-x="909"
     inkscape:window-y="226"
     inkscape:window-maximized="0"
     inkscape:current-layer="svg2417" />
  <path
     d="M25.428,3.333C25.238,3.121,24.967,3,24.683,3H5.317C5.033,3,4.762,3.121,4.572,3.333c-0.19,0.212-0.28,0.495-0.249,0.777 l2.202,19.823c0.044,0.403,0.329,0.74,0.719,0.851l7.48,2.137c0.09,0.026,0.183,0.039,0.275,0.039s0.185-0.013,0.275-0.039 l7.48-2.137c0.39-0.111,0.674-0.448,0.719-0.851L25.676,4.11C25.708,3.828,25.618,3.545,25.428,3.333z M20.516,13.074l-0.446,7.285 l-5.038,1.647l-5.038-1.647l-0.191-3.484h2.55l0.064,1.584l2.615,0.887l2.615-0.887l0.191-2.85h-5.612l-0.127-2.534h5.867 l0.191-2.534H9.356L9.165,8.006h11.67L20.516,13.074z"
     id="path2415" />
  <path
     style="fill:#212529;stroke-width:0.683761"
     d="M 210.73985,47.168803 C 167.45316,47.374801 124.14598,46.976054 80.873398,47.971421 72.717139,50.170771 66.976397,58.888725 68.960405,67.267618 80.136317,172.23919 91.774328,277.16537 103.86774,382.03521 c 0.10663,7.8372 6.71743,14.42886 14.31848,15.53679 40.27429,12.03758 80.65271,23.79253 121.30497,34.48062 15.86647,-3.26606 31.39243,-8.36777 47.06222,-12.56673 27.30924,-7.98045 54.85556,-15.30667 81.82533,-24.35501 5.32073,-3.41204 8.56361,-9.46062 8.25078,-15.80475 11.55213,-105.06233 23.71641,-210.06268 34.60846,-315.194185 0.70735,-9.397806 -8.55354,-17.811514 -17.83764,-16.386322 -60.88217,-0.716757 -121.77492,-0.539377 -182.66049,-0.57682 z m 29.2241,81.352827 c 30.87501,0.12476 61.84273,-0.21526 92.66025,0.5609 -4.34358,65.32363 -7.7341,130.78593 -12.62954,196.0617 -26.51484,9.11291 -53.19718,17.71619 -79.91453,26.22062 -26.50913,-8.64214 -52.98773,-17.40629 -79.48051,-26.11512 -1.05573,-17.9713 -2.20512,-36.23741 -2.88327,-54.07852 13.13951,-0.83557 26.39514,-0.23965 39.58466,-0.42735 0.28199,8.32981 -0.30249,17.03287 1.44211,25.08971 13.54221,5.1406 27.66205,9.46374 41.42649,14.28929 14.13511,-4.35068 28.23613,-9.27143 42.21554,-14.24278 1.71125,-4.06476 0.7871,-9.09378 1.5311,-13.48688 0.53625,-11.04288 1.68061,-22.24659 2.10405,-33.17712 -16.43159,-0.70621 -33.12861,-0.0997 -49.66213,-0.30182 -13.29371,0 -26.58743,0 -39.88114,0 -1.18206,-12.95339 -1.6448,-26.03522 -1.97382,-39.0251 30.97889,-0.18991 61.99264,0.4445 92.95005,-0.54087 1.84842,-3.52782 0.79939,-8.48175 1.60987,-12.51649 0.60319,-9.19642 1.64224,-18.3774 1.85167,-27.59302 -2.91094,-2.29525 -8.14086,-0.38513 -11.93773,-1.02884 -42.8824,-0.10716 -85.7648,-0.21313 -128.64721,-0.31864 -0.99105,-13.12374 -1.96077,-26.24951 -2.99412,-39.36967 30.87607,0 61.75214,0 92.62821,0 z"
     id="path2425"
     transform="scale(0.0625)" />
</svg>
