<?xml version="1.0" encoding="utf-8"?>
<!-- Generator: Adobe Illustrator 23.0.1, SVG Export Plug-In . SVG Version: 6.00 Build 0)  -->
<svg version="1.1" id="Layer_1" xmlns="http://www.w3.org/2000/svg" xmlns:xlink="http://www.w3.org/1999/xlink" x="0px" y="0px"
	 viewBox="0 0 480 480" style="enable-background:new 0 0 480 480;" xml:space="preserve">
<style type="text/css">
	.st0{fill:#37393A;}
	.st1{fill:#495057;}
	.st2{fill:#2D2624;}
	.st3{fill:#586166;}
</style>
<path class="st0" d="M80,370L232.3,84.4c3.2-6,11.9-5.9,14.9,0.2L300,190L80,370z"/>
<path class="st1" d="M80,369.9l55.5-342c1.5-9,13.5-10.9,17.7-2.9L260,229.9L80,369.9z"/>
<path class="st2" d="M80.1,369.9l2-1.6l175.3-143.4l-49.4-94.8L80.1,369.9z"/>
<path class="st3" d="M80,370l266.7-257.1c5.6-5.4,14.9-2.2,16.1,5.5L400,370l-150,87.4c-6.1,3.4-13.5,3.4-19.6,0L80,370z"/>
</svg>
