<?xml version="1.0" encoding="UTF-8" standalone="no"?>
<svg
   xmlns:dc="http://purl.org/dc/elements/1.1/"
   xmlns:cc="http://creativecommons.org/ns#"
   xmlns:rdf="http://www.w3.org/1999/02/22-rdf-syntax-ns#"
   xmlns:svg="http://www.w3.org/2000/svg"
   xmlns="http://www.w3.org/2000/svg"
   xmlns:sodipodi="http://sodipodi.sourceforge.net/DTD/sodipodi-0.dtd"
   xmlns:inkscape="http://www.inkscape.org/namespaces/inkscape"
   fill="#000000"
   viewBox="0 0 50 50"
   width="500px"
   height="500px"
   version="1.1"
   id="svg2625"
   sodipodi:docname="flutter.svg"
   inkscape:version="1.0.2 (e86c870879, 2021-01-15)">
  <metadata
     id="metadata2631">
    <rdf:RDF>
      <cc:Work
         rdf:about="">
        <dc:format>image/svg+xml</dc:format>
        <dc:type
           rdf:resource="http://purl.org/dc/dcmitype/StillImage" />
      </cc:Work>
    </rdf:RDF>
  </metadata>
  <defs
     id="defs2629" />
  <sodipodi:namedview
     pagecolor="#ffffff"
     bordercolor="#666666"
     borderopacity="1"
     objecttolerance="10"
     gridtolerance="10"
     guidetolerance="10"
     inkscape:pageopacity="0"
     inkscape:pageshadow="2"
     inkscape:window-width="2532"
     inkscape:window-height="1026"
     id="namedview2627"
     showgrid="false"
     inkscape:zoom="1.404"
     inkscape:cx="250"
     inkscape:cy="248.93162"
     inkscape:window-x="909"
     inkscape:window-y="226"
     inkscape:window-maximized="0"
     inkscape:current-layer="svg2625" />
  <path
     d="M 27 3 A 1.0001 1.0001 0 0 0 26.292969 3.2929688 L 5.2929688 24.292969 A 1.0001 1.0001 0 0 0 5.2929688 25.707031 L 11.292969 31.707031 A 1.0001 1.0001 0 0 0 12.707031 31.707031 L 39.707031 4.7070312 A 1.0001 1.0001 0 0 0 39 3 L 27 3 z M 27.414062 5 L 36.585938 5 L 12 29.585938 L 7.4140625 25 L 27.414062 5 z M 28 22 A 1.0001 1.0001 0 0 0 27.292969 22.292969 L 15.292969 34.292969 A 1.0001 1.0001 0 0 0 15.292969 35.707031 L 21.292969 41.707031 L 27.292969 47.707031 A 1.0001 1.0001 0 0 0 28 48 L 40 48 A 1.0001 1.0001 0 0 0 40.707031 46.292969 L 29.414062 35 L 40.707031 23.707031 A 1.0001 1.0001 0 0 0 40 22 L 28 22 z M 28.414062 24 L 37.585938 24 L 22 39.585938 L 17.414062 35 L 28.414062 24 z M 28 36.414062 L 37.585938 46 L 28.414062 46 L 23.414062 41 L 28 36.414062 z"
     id="path2623" />
  <path
     style="fill:#212529;stroke-width:0.712251"
     d="M 315.73434,29.281573 C 299.28389,29.506371 282.77931,28.996 266.36368,30.045295 250.0596,44.870727 234.74501,60.892558 218.92454,76.279256 162.97159,131.99726 106.78355,187.48884 51.599225,243.96813 c -3.591171,4.25858 -2.230047,11.37416 2.264735,14.53854 20.192883,20.60812 40.328584,41.34145 61.42467,61.0129 4.7686,2.09666 10.6742,0.56713 13.58616,-3.8668 82.68282,-81.73643 164.83183,-164.02189 246.68155,-246.592451 8.18383,-8.67803 17.16925,-16.762914 24.68683,-25.985845 1.71172,-6.382827 -3.24966,-13.792716 -10.19966,-13.20446 -24.73458,-1.148914 -49.55277,-0.365629 -74.30917,-0.588441 z m 4.24429,21.220063 c 14.64103,0.03358 29.34237,0.0059 43.94253,0.37421 -80.30739,80.939794 -160.9187,161.642274 -241.96352,241.845284 -1.90387,3.89529 -3.93077,-0.24233 -5.84269,-1.66516 C 102.32804,277.58836 88.586917,264.07229 75.365028,250.04452 141.18913,183.12196 207.96128,116.99603 274.27495,50.501636 c 15.23456,0 30.46912,0 45.70368,0 z"
     id="path2633"
     transform="scale(0.1)" />
  <path
     style="fill:#212529;stroke-width:0.712251"
     d="m 340.09972,219.44138 c -21.13817,0.2573 -42.32844,-0.52189 -63.43345,0.74564 -4.30767,1.58437 -6.84686,6.24144 -10.44012,8.9924 -36.23313,35.84348 -72.49585,71.67192 -107.98112,108.25691 -3.14325,4.10494 -8.52688,7.65863 -8.92835,13.20664 0.7286,5.38175 6.30049,8.38661 9.31046,12.47776 37.66074,38.50268 75.65693,76.69495 114.3206,114.19364 3.5325,4.54701 9.95872,2.38955 14.87643,3.11504 37.2605,0.24159 74.53725,0.58444 111.79161,-0.13038 7.85502,1.02407 13.81147,-9.10855 9.49992,-15.49006 -37.48113,-38.71698 -75.9085,-76.50812 -113.89056,-114.73357 38.00895,-38.36665 76.77593,-76.00445 113.96011,-115.17317 3.22445,-5.13657 0.39215,-14.49085 -6.46868,-14.61783 -20.8094,-1.54821 -41.76346,-0.53382 -62.61685,-0.84302 z m -10.14679,21.40369 c 14.57146,0.058 29.14292,0.11593 43.71438,0.17389 -51.31452,51.31265 -102.62903,102.62531 -153.94353,153.93797 -14.95773,-14.96329 -29.91546,-29.92659 -44.87319,-44.88988 36.46881,-36.46733 72.93687,-72.93542 109.40422,-109.40421 15.2327,0.0607 30.46541,0.12149 45.69812,0.18223 z m -2.48871,171.36724 c 15.5355,15.57946 31.13901,31.13057 46.47575,46.88475 -29.85652,0.61845 -59.8086,0.28263 -89.70186,0.37281 -16.40255,-16.40688 -32.80474,-32.81413 -49.2065,-49.22181 15.08189,-15.07607 30.16343,-30.15251 45.24461,-45.22931 15.72934,15.73119 31.45867,31.46238 47.188,47.19356 z"
     id="path2635"
     transform="scale(0.1)" />
</svg>
