<?xml version="1.0" encoding="UTF-8" standalone="no"?>
<svg
   xmlns:dc="http://purl.org/dc/elements/1.1/"
   xmlns:cc="http://creativecommons.org/ns#"
   xmlns:rdf="http://www.w3.org/1999/02/22-rdf-syntax-ns#"
   xmlns:svg="http://www.w3.org/2000/svg"
   xmlns="http://www.w3.org/2000/svg"
   xmlns:sodipodi="http://sodipodi.sourceforge.net/DTD/sodipodi-0.dtd"
   xmlns:inkscape="http://www.inkscape.org/namespaces/inkscape"
   fill="#000000"
   viewBox="0 0 30 30"
   width="480px"
   height="480px"
   version="1.1"
   id="svg2682"
   sodipodi:docname="html5.svg"
   inkscape:version="1.0.2 (e86c870879, 2021-01-15)">
  <metadata
     id="metadata2688">
    <rdf:RDF>
      <cc:Work
         rdf:about="">
        <dc:format>image/svg+xml</dc:format>
        <dc:type
           rdf:resource="http://purl.org/dc/dcmitype/StillImage" />
      </cc:Work>
    </rdf:RDF>
  </metadata>
  <defs
     id="defs2686" />
  <sodipodi:namedview
     pagecolor="#ffffff"
     bordercolor="#666666"
     borderopacity="1"
     objecttolerance="10"
     gridtolerance="10"
     guidetolerance="10"
     inkscape:pageopacity="0"
     inkscape:pageshadow="2"
     inkscape:window-width="2532"
     inkscape:window-height="1026"
     id="namedview2684"
     showgrid="false"
     inkscape:zoom="1.4625"
     inkscape:cx="240"
     inkscape:cy="238.97436"
     inkscape:window-x="909"
     inkscape:window-y="226"
     inkscape:window-maximized="0"
     inkscape:current-layer="svg2682" />
  <path
     d="M25.428,3.333C25.238,3.121,24.967,3,24.683,3H5.317C5.033,3,4.762,3.121,4.572,3.333c-0.19,0.212-0.28,0.495-0.249,0.777 l2.202,19.823c0.044,0.403,0.329,0.74,0.719,0.851l7.48,2.137c0.09,0.026,0.183,0.039,0.275,0.039s0.185-0.013,0.275-0.039 l7.48-2.137c0.39-0.111,0.674-0.448,0.719-0.851L25.676,4.11C25.708,3.828,25.618,3.545,25.428,3.333z M20.629,10.43h-8.93 l0.212,2.542h8.503l-0.638,7.51L15.003,22l-0.047-0.015l-4.72-1.505L9.978,17.42h2.312l0.101,1.189l2.637,0.581l2.591-0.582 l0.275-3.213h-8.09L9.178,8h11.659L20.629,10.43z"
     id="path2680" />
  <path
     style="fill:#212529;stroke-width:0.683761"
     d="M 210.73985,47.168803 C 167.45316,47.374801 124.14598,46.976054 80.873398,47.971421 72.717139,50.170771 66.976397,58.888725 68.960405,67.267618 80.136317,172.23919 91.774328,277.16537 103.86774,382.03521 c 0.10663,7.8372 6.71743,14.42886 14.31848,15.53679 40.27429,12.03758 80.65271,23.79253 121.30497,34.48062 15.86647,-3.26606 31.39243,-8.36777 47.06222,-12.56673 27.30924,-7.98045 54.85556,-15.30667 81.82533,-24.35501 5.32073,-3.41204 8.56361,-9.46062 8.25078,-15.80475 11.55213,-105.06233 23.71641,-210.06268 34.60846,-315.194185 0.70735,-9.397806 -8.55354,-17.811514 -17.83764,-16.386322 -60.88217,-0.716757 -121.77492,-0.539377 -182.66049,-0.57682 z m 29.2735,81.352827 c 30.85868,0.0635 61.80218,-0.0535 92.60817,0.44071 -1.03837,12.39681 -1.95485,24.9368 -3.32798,37.21688 -47.30547,0 -94.61093,0 -141.9164,0 -2.20643,1.63423 0.10924,5.35017 -0.2851,7.8137 1.12182,11.07649 1.66266,22.3166 2.93066,33.30543 4.8505,1.75637 10.51091,0.57939 15.63822,1.07323 39.41849,0.46791 78.91741,-0.32834 118.28673,0.56538 3.73231,-0.34073 0.76843,4.96239 1.34559,7.1826 -3.11918,37.01844 -6.29594,74.06954 -10.02882,111.00785 -24.86196,8.40389 -49.95781,16.08395 -74.97863,24.01976 -25.30481,-7.6802 -50.50477,-15.73019 -75.59962,-24.07051 -1.78469,-15.77438 -2.72017,-31.64658 -4.39236,-47.44391 11.86743,0 23.73486,0 35.60229,0 1.103,6.16045 0.71375,12.64144 1.98718,18.66186 14.22138,3.24562 28.51755,6.42722 42.79514,9.39636 13.6763,-3.06741 27.36468,-6.08201 41.02697,-9.21074 2.0642,-3.32788 0.96257,-8.05446 1.80935,-11.90684 0.99893,-13.1714 2.65987,-26.40474 3.13991,-39.55149 -3.17678,-2.16687 -7.73604,-0.79484 -11.40619,-1.36243 -39.20512,-0.31894 -78.41277,-0.0963 -117.61892,-0.16401 -3.73447,-38.95781 -6.45701,-78.01227 -10.14957,-116.97383 30.84446,0 61.68893,0 92.53338,0 z"
     id="path2690"
     transform="scale(0.0625)" />
</svg>
