<?xml version="1.0" encoding="UTF-8" standalone="no"?>
<svg
   xmlns:dc="http://purl.org/dc/elements/1.1/"
   xmlns:cc="http://creativecommons.org/ns#"
   xmlns:rdf="http://www.w3.org/1999/02/22-rdf-syntax-ns#"
   xmlns:svg="http://www.w3.org/2000/svg"
   xmlns="http://www.w3.org/2000/svg"
   xmlns:sodipodi="http://sodipodi.sourceforge.net/DTD/sodipodi-0.dtd"
   xmlns:inkscape="http://www.inkscape.org/namespaces/inkscape"
   fill="#000000"
   viewBox="0 0 50 50"
   width="500px"
   height="500px"
   version="1.1"
   id="svg2746"
   sodipodi:docname="java.svg"
   inkscape:version="1.0.2 (e86c870879, 2021-01-15)">
  <metadata
     id="metadata2752">
    <rdf:RDF>
      <cc:Work
         rdf:about="">
        <dc:format>image/svg+xml</dc:format>
        <dc:type
           rdf:resource="http://purl.org/dc/dcmitype/StillImage" />
      </cc:Work>
    </rdf:RDF>
  </metadata>
  <defs
     id="defs2750" />
  <sodipodi:namedview
     pagecolor="#ffffff"
     bordercolor="#666666"
     borderopacity="1"
     objecttolerance="10"
     gridtolerance="10"
     guidetolerance="10"
     inkscape:pageopacity="0"
     inkscape:pageshadow="2"
     inkscape:window-width="2532"
     inkscape:window-height="1026"
     id="namedview2748"
     showgrid="false"
     inkscape:zoom="0.99277792"
     inkscape:cx="9.2073619"
     inkscape:cy="170.8132"
     inkscape:window-x="909"
     inkscape:window-y="226"
     inkscape:window-maximized="0"
     inkscape:current-layer="svg2746" />
  <path
     d="M 28.1875 -0.00390625 C 30.9375 6.359375 18.320313 10.289063 17.152344 15.59375 C 16.074219 20.460938 24.640625 26.121094 24.644531 26.121094 C 23.34375 24.105469 22.402344 22.441406 21.097656 19.304688 C 18.890625 14 34.53125 9.203125 28.1875 -0.00390625 Z M 36.550781 8.8125 C 36.550781 8.8125 25.503906 9.511719 24.941406 16.582031 C 24.691406 19.730469 27.84375 21.410156 27.9375 23.703125 C 28.007813 25.570313 26.050781 27.128906 26.050781 27.128906 C 26.050781 27.128906 29.601563 26.460938 30.714844 23.605469 C 31.945313 20.4375 28.328125 18.273438 28.691406 15.738281 C 29.042969 13.3125 36.550781 8.8125 36.550781 8.8125 Z M 39.230469 25.144531 C 38.074219 25.09375 36.789063 25.476563 35.625 26.3125 C 37.90625 25.824219 39.835938 27.21875 39.835938 28.828125 C 39.835938 32.453125 34.597656 35.878906 34.597656 35.878906 C 34.597656 35.878906 42.707031 34.953125 42.707031 29 C 42.707031 26.539063 41.152344 25.234375 39.230469 25.144531 Z M 19.183594 25.152344 C 19.183594 25.152344 9.0625 25.015625 9.0625 27.878906 C 9.0625 30.871094 22.316406 31.082031 31.78125 29.238281 C 31.78125 29.238281 34.308594 27.507813 34.980469 26.863281 C 28.777344 28.128906 14.621094 28.296875 14.621094 27.203125 C 14.621094 26.191406 19.183594 25.152344 19.183594 25.152344 Z M 16.738281 30.722656 C 15.1875 30.722656 12.871094 31.921875 12.871094 33.078125 C 12.871094 35.402344 24.5625 37.195313 33.21875 33.796875 L 30.222656 31.960938 C 24.355469 33.839844 13.539063 33.238281 16.738281 30.722656 Z M 18.179688 35.921875 C 16.050781 35.921875 14.671875 37.234375 14.671875 38.203125 C 14.671875 41.1875 27.378906 41.488281 32.414063 38.453125 L 29.214844 36.417969 C 25.453125 38.007813 16.007813 38.222656 18.179688 35.921875 Z M 11.089844 38.625 C 7.621094 38.554688 5.367188 40.113281 5.367188 41.40625 C 5.363281 48.28125 40.890625 47.949219 40.890625 40.921875 C 40.890625 39.757813 39.515625 39.203125 39.019531 38.9375 C 41.921875 45.65625 9.96875 45.136719 9.96875 41.171875 C 9.96875 40.269531 12.3125 39.382813 14.492188 39.808594 L 12.644531 38.757813 C 12.101563 38.675781 11.582031 38.632813 11.089844 38.625 Z M 44.636719 43.25 C 39.234375 48.367188 25.546875 50.234375 11.78125 47.074219 C 25.542969 52.703125 44.566406 49.535156 44.636719 43.25 Z"
     id="path2744" />
  <path
     style="fill:#212529;stroke-width:0.712251"
     d="m 285.87407,15.257746 c -1.25542,10.027202 -3.32993,20.021238 -8.99913,28.595753 -14.0323,21.947729 -36.06082,36.988427 -55.70023,53.523139 -17.23577,14.471922 -36.3501,28.469042 -46.87082,48.933842 -7.93423,15.41702 -3.69688,33.86765 4.61432,48.18127 13.23502,23.04027 33.20637,41.38802 54.02951,57.49337 1.99733,1.68033 6.48938,3.73356 8.06985,0.63992 -3.02929,-7.32108 -7.95117,-13.87355 -11.21926,-21.1699 -6.76423,-14.09746 -14.79022,-27.79698 -19.24198,-42.86729 -3.56151,-13.83531 5.24601,-27.03957 13.65936,-37.09824 20.19287,-23.96235 45.55546,-43.68717 62.22317,-70.546212 10.12855,-16.622226 14.64722,-37.418003 8.34529,-56.256029 -1.58889,-3.273627 -1.60203,-9.814109 -6.62663,-9.582796 -0.7931,-0.02359 -1.56139,-0.3755 -2.28345,0.153173 z"
     id="path2754"
     transform="scale(0.1)" />
  <path
     style="fill:#212529;stroke-width:0.712251"
     d="m 355.49101,88.504107 c -30.44756,4.630878 -62.08949,13.322793 -85.26296,34.707693 -13.72475,12.25386 -22.68699,30.36037 -21.30755,49.00124 1.14978,20.57033 17.5761,35.22405 26.22585,52.67345 4.93787,8.66413 4.30321,19.46358 -0.55622,28.02054 -1.68345,4.81123 -7.17693,8.33937 -6.95219,13.71401 1.64501,3.68245 6.48492,0.73944 9.01999,-0.20728 16.52429,-7.23405 31.73313,-21.84566 33.31163,-40.66089 1.72123,-16.53517 -9.1517,-30.53004 -16.20231,-44.43499 -5.33516,-9.52905 -9.5046,-22.13027 -2.78779,-32.06101 11.48316,-16.13897 27.825,-28.02983 43.46955,-39.84292 7.17757,-5.7057 15.58369,-9.858176 22.57362,-15.755764 1.19263,-1.52272 1.4254,-5.663112 -1.53162,-5.154079 z"
     id="path2756"
     transform="scale(0.1)" />
  <path
     style="fill:#212529;stroke-width:0.712251"
     d="m 164.66207,251.72776 c -20.23023,1.31365 -40.87839,3.33613 -59.91947,10.70557 -7.075172,3.1773 -15.982091,9.44687 -14.42448,18.36178 2.757872,9.59276 13.65987,12.98325 22.14515,15.70846 19.79948,5.4325 40.4444,7.41484 60.91265,7.98609 31.00907,-0.12595 62.12053,0.0977 92.93483,-3.8956 17.04572,-2.15375 34.31569,-3.66126 51.00807,-7.79781 9.08065,-4.8577 17.12154,-11.52713 25.3795,-17.62681 2.2534,-1.40304 2.37935,-6.6335 -1.17271,-5.70218 -37.73385,6.27645 -76.08146,7.88731 -114.27434,8.83858 -23.83564,0.075 -47.80138,0.51491 -71.44488,-2.75491 -2.85766,-0.86151 -7.46387,-0.80329 -8.66819,-4.00952 2.78404,-5.52225 9.45952,-7.62391 14.72634,-10.18435 4.21639,-2.32699 9.86738,-2.29749 13.33522,-5.74113 1.18486,-2.66416 -0.25366,-5.61722 -3.59018,-4.21087 -2.31583,0.10757 -4.63167,0.21514 -6.94751,0.3227 z"
     id="path2758"
     transform="scale(0.1)" />
  <path
     style="fill:#212529;stroke-width:0.712251"
     d="m 389.62896,250.92926 c -7.79505,0.44946 -16.26427,1.40341 -22.87827,5.82599 -2.0792,2.30978 -0.78435,6.60642 2.76693,6.23359 12.35045,1.23232 25.50692,9.30404 27.83064,22.32739 1.0355,9.08004 -2.00603,18.1232 -6.40385,25.95219 -8.13152,16.18961 -22.15036,28.1485 -35.41028,40.08402 -2.048,1.88612 -1.376,7.37738 2.25917,5.9178 23.34433,-5.63726 47.6381,-16.08156 61.2068,-36.93497 10.00813,-15.90703 12.35792,-38.05919 1.86217,-54.30963 -6.81881,-10.24301 -19.12575,-15.53598 -31.23331,-15.09638 z"
     id="path2760"
     transform="scale(0.1)" />
  <path
     style="fill:#212529;stroke-width:0.712251"
     d="m 162.01756,307.11917 c -12.01269,1.95503 -24.33497,7.43952 -31.84818,17.33329 -3.66319,4.47469 -2.01924,11.10217 2.5374,14.29787 12.07738,9.3024 27.66627,12.1179 42.29124,14.94544 44.87912,7.07048 91.27697,4.08691 135.10239,-7.72828 6.19042,-2.15609 13.14633,-3.03146 18.63946,-6.71775 2.14661,-3.33381 -2.96097,-5.55019 -5.06087,-7.16702 -7.14988,-4.19297 -14.08879,-9.24574 -21.51359,-12.66749 -16.81544,3.99666 -33.75408,7.68106 -51.05521,8.99762 -24.87501,1.93672 -50.52697,2.73867 -74.88101,-3.16189 -4.89734,-1.77008 -12.36519,-3.20029 -13.7303,-9.19388 -1.14403,-3.15728 4.53976,-6.23822 1.16158,-8.70142 -0.51751,-0.21481 -1.08915,-0.24975 -1.64291,-0.23649 z"
     id="path2762"
     transform="scale(0.1)" />
  <path
     style="fill:#212529;stroke-width:0.712251"
     d="m 179.34668,358.49303 c -12.62495,1.17946 -26.81429,6.57152 -32.27247,18.92751 -3.45418,7.72136 3.31687,14.9356 9.86856,18.06223 17.89991,8.81313 38.36487,10.219 57.99083,10.98642 31.45181,0.1982 63.52223,-2.69834 93.20386,-13.70048 4.72733,-2.28703 10.8869,-3.47912 14.028,-7.97526 -0.4131,-3.30063 -4.79941,-4.49526 -6.95418,-6.62171 -7.77324,-4.91853 -15.32256,-10.67349 -23.97307,-13.90419 -17.63186,5.60247 -35.93103,9.38484 -54.41428,10.43781 -15.2859,0.73431 -30.87276,1.32948 -45.93657,-1.52494 -4.07443,-1.43869 -9.74048,-2.48669 -11.46974,-6.982 -0.80538,-2.38985 3.89804,-7.28759 -0.0709,-7.70539 z"
     id="path2764"
     transform="scale(0.1)" />
  <path
     style="fill:#212529;stroke-width:0.712251"
     d="m 107.4803,385.5363 c -17.096242,0.56394 -35.591593,4.27962 -48.395487,16.4235 -4.796229,4.54735 -7.479596,11.48804 -5.03027,17.92869 4.53543,13.22199 18.281144,19.94637 30.262523,25.05358 32.309584,12.37891 67.150874,15.91075 101.409264,18.43544 24.61633,1.3429 49.31826,0.90753 73.94761,0.13013 38.02562,-2.60857 76.58803,-6.59301 112.62407,-19.71744 13.35334,-5.41565 28.18148,-12.06636 35.14,-25.52793 3.80477,-7.05678 2.22658,-16.30287 -4.17752,-21.30352 -3.18532,-2.89559 -7.35701,-6.49472 -11.94828,-4.7757 -0.20259,5.71384 0.1583,12.08991 -4.01059,16.53896 -9.74266,11.15739 -24.70487,15.56739 -38.4394,19.64423 -37.82454,9.72585 -77.11335,11.61083 -116.06611,11.72836 -35.68941,-0.51456 -71.70783,-2.3696 -106.37871,-11.48938 -8.67143,-2.85099 -18.78004,-5.0822 -24.51547,-12.81913 -2.860266,-3.90727 -0.44913,-8.53224 3.28303,-10.60308 8.88959,-6.19537 20.08856,-6.81621 30.4515,-8.19088 3.2261,-1.74032 -0.37011,-5.42947 -2.51652,-6.34626 -7.40147,-5.32966 -16.96675,-4.87124 -25.63964,-5.10957 z"
     id="path2766"
     transform="scale(0.1)" />
  <path
     style="fill:#212529;stroke-width:0.712251"
     d="m 443.21192,436.67924 c -6.42711,1.44578 -10.82075,7.20904 -16.60307,10.10715 -34.68853,21.16695 -75.11613,30.21839 -115.02281,35.3364 -47.17365,5.46969 -95.07867,3.86276 -142.09339,-2.50058 -4.76462,-0.42863 -9.54551,-1.98283 -14.25399,-1.85361 -1.09508,3.80099 0.24106,8.22809 4.97795,7.90647 43.57412,11.37072 88.81536,16.30455 133.81912,14.55725 37.30826,-1.72105 75.17898,-6.90806 109.73809,-21.72782 16.6626,-7.59142 34.17524,-18.16197 41.41765,-35.86572 0.80222,-2.24627 2.12408,-6.56957 -1.97955,-5.95954 z"
     id="path2768"
     transform="scale(0.1)" />
  <path
     style="fill:#212529;stroke-width:0.0890313"
     d="m 122.0353,470.79205 c -0.87207,-0.0129 -1.29398,0.98952 -1.0369,1.70064 0.34543,0.96334 1.52689,1.07419 2.33348,1.47005 10.24617,3.96935 20.69111,7.41761 31.25307,10.44241 0.69463,0.24275 1.73441,0.20232 1.951,-0.66083 0.1761,-0.80932 -0.5295,-1.48188 -0.5481,-2.28599 -0.20476,-1.07239 -0.12264,-2.17501 0.10548,-3.22971 0.006,-0.86228 -0.93666,-1.16126 -1.64299,-1.21395 -10.6523,-1.75197 -21.24251,-3.88633 -31.82688,-6.14686 -0.19443,-0.0349 -0.38918,-0.0826 -0.58816,-0.0758 z"
     id="path2770"
     transform="scale(0.1)" />
  <path
     style="fill:#212529;stroke-width:0.0111289"
     d="m 118.31408,469.87258 c -0.40704,0.003 -0.79811,0.27308 -0.93449,0.65857 -0.13464,0.35709 -0.0688,0.79066 0.19742,1.07115 0.22202,0.2514 0.55971,0.33506 0.85555,0.46576 0.7157,0.285 1.42701,0.58157 2.1479,0.85321 0.40093,0.13763 0.8797,-0.005 1.13172,-0.34807 0.13587,-0.17263 0.20017,-0.38977 0.21943,-0.60608 0.0358,-0.1372 0.0969,-0.26871 0.10196,-0.41308 0.0355,-0.41835 -0.222,-0.84172 -0.61324,-0.99643 -0.22431,-0.0855 -0.4654,-0.11574 -0.69738,-0.17531 -0.73653,-0.16236 -1.46472,-0.33678 -2.2021,-0.49294 -0.0681,-0.0131 -0.13777,-0.0123 -0.20677,-0.0168 z m -0.97452,0.82063 c 0.003,-0.0216 0.01,-0.0415 0,0 z"
     id="path2772"
     transform="scale(0.1)" />
  <path
     style="fill:#212529;stroke-width:0.0629547"
     d="m 186.56254,251.55827 c -3.74793,0.0564 -7.49843,0.0976 -11.24257,0.2726 -0.3335,0.0153 -0.0224,0.42252 0.0247,0.58159 0.35341,0.82564 0.28534,1.78158 0.0783,2.63696 -0.0442,0.25591 -0.27234,0.54805 -0.17153,0.79825 0.63837,0.007 1.2522,-0.30954 1.87326,-0.45029 4.33564,-1.29846 8.72323,-2.41641 13.1054,-3.54032 0.21966,-0.15994 0.0658,-0.47726 -0.22081,-0.33947 -1.14893,0.0136 -2.29786,0.0271 -3.44679,0.0407 z"
     id="path2780"
     transform="scale(0.1)" />
  <path
     style="fill:#212529;stroke-width:0.0445157"
     d="m 446.21009,432.78425 c -0.52368,0.29579 -0.91675,0.7859 -1.37899,1.16841 -1.0402,0.97004 -2.14502,1.86838 -3.19326,2.82852 -0.13052,0.0689 -0.17494,0.38294 0.0442,0.30596 1.01647,-0.29216 2.10927,-0.67791 3.16444,-0.33526 0.35893,0.0911 0.59323,0.38832 0.87649,0.59409 0.26771,0.0806 0.21,-0.31625 0.26231,-0.46767 0.17821,-1.33468 0.34129,-2.67996 0.34204,-4.02754 -7.5e-4,-0.0651 -0.0674,-0.0717 -0.1172,-0.0665 z"
     id="path2782"
     transform="scale(0.1)" />
</svg>
