<?xml version="1.0" encoding="UTF-8" standalone="no"?>
<svg
   xmlns:dc="http://purl.org/dc/elements/1.1/"
   xmlns:cc="http://creativecommons.org/ns#"
   xmlns:rdf="http://www.w3.org/1999/02/22-rdf-syntax-ns#"
   xmlns:svg="http://www.w3.org/2000/svg"
   xmlns="http://www.w3.org/2000/svg"
   xmlns:sodipodi="http://sodipodi.sourceforge.net/DTD/sodipodi-0.dtd"
   xmlns:inkscape="http://www.inkscape.org/namespaces/inkscape"
   fill="#000000"
   viewBox="0 0 50 50"
   width="500px"
   height="500px"
   version="1.1"
   id="svg3214"
   sodipodi:docname="js.svg"
   inkscape:version="1.0.2 (e86c870879, 2021-01-15)">
  <metadata
     id="metadata3220">
    <rdf:RDF>
      <cc:Work
         rdf:about="">
        <dc:format>image/svg+xml</dc:format>
        <dc:type
           rdf:resource="http://purl.org/dc/dcmitype/StillImage" />
      </cc:Work>
    </rdf:RDF>
  </metadata>
  <defs
     id="defs3218" />
  <sodipodi:namedview
     pagecolor="#ffffff"
     bordercolor="#666666"
     borderopacity="1"
     objecttolerance="10"
     gridtolerance="10"
     guidetolerance="10"
     inkscape:pageopacity="0"
     inkscape:pageshadow="2"
     inkscape:window-width="2532"
     inkscape:window-height="1026"
     id="namedview3216"
     showgrid="false"
     inkscape:zoom="1.404"
     inkscape:cx="250"
     inkscape:cy="248.93162"
     inkscape:window-x="909"
     inkscape:window-y="226"
     inkscape:window-maximized="0"
     inkscape:current-layer="svg3214" />
  <path
     d="M 43.335938 4 L 6.667969 4 C 5.195313 4 4 5.195313 4 6.667969 L 4 43.332031 C 4 44.804688 5.195313 46 6.667969 46 L 43.332031 46 C 44.804688 46 46 44.804688 46 43.335938 L 46 6.667969 C 46 5.195313 44.804688 4 43.335938 4 Z M 27 36.183594 C 27 40.179688 24.65625 42 21.234375 42 C 18.140625 42 15.910156 39.925781 15 38 L 18.144531 36.097656 C 18.75 37.171875 19.671875 38 21 38 C 22.269531 38 23 37.503906 23 35.574219 L 23 23 L 27 23 Z M 35.675781 42 C 32.132813 42 30.121094 40.214844 29 38 L 32 36 C 32.816406 37.335938 33.707031 38.613281 35.589844 38.613281 C 37.171875 38.613281 38 37.824219 38 36.730469 C 38 35.425781 37.140625 34.960938 35.402344 34.199219 L 34.449219 33.789063 C 31.695313 32.617188 29.863281 31.148438 29.863281 28.039063 C 29.863281 25.179688 32.046875 23 35.453125 23 C 37.878906 23 39.621094 23.84375 40.878906 26.054688 L 37.910156 27.964844 C 37.253906 26.789063 36.550781 26.328125 35.453125 26.328125 C 34.335938 26.328125 33.628906 27.039063 33.628906 27.964844 C 33.628906 29.109375 34.335938 29.570313 35.972656 30.28125 L 36.925781 30.691406 C 40.171875 32.078125 42 33.496094 42 36.683594 C 42 40.117188 39.300781 42 35.675781 42 Z"
     id="path3212" />
  <path
     style="fill:#212529;stroke-width:0.712251"
     d="M 155.81597,40.240774 C 124.39608,40.536361 92.927249,39.676016 61.544304,41.43435 53.509009,41.7235 47.060298,48.208364 43.33044,54.843305 38.638358,63.00674 41.279851,72.65534 40.598291,81.605569 c 0,118.910631 0,237.821251 0,356.731881 2.991712,11.74625 13.926245,22.04452 26.600602,20.7967 80.999177,0.95833 162.010107,0.39113 243.014117,0.5976 41.87651,-0.25503 83.78421,0.63247 125.63814,-0.94772 5.41425,0.11586 10.52972,-1.69949 14.37634,-5.55553 6.84952,-5.63888 10.30063,-14.69118 9.17422,-23.43806 0,-122.70929 0,-245.4186 0,-368.127891 -2.39115,-8.617983 -8.53549,-16.741623 -17.13992,-19.675926 -19.67589,-2.282572 -39.58637,-1.267297 -59.36303,-1.682242 -75.69412,-0.138238 -151.38857,-0.03401 -227.08279,-0.06361 z M 250.0167,229.70085 c 6.87952,0 13.75905,0 20.63857,0 -0.23078,46.56226 0.52354,93.15074 -0.79422,139.695 -0.85492,19.52171 -12.03799,39.42718 -31.05171,46.30687 -19.45774,7.18929 -42.3183,6.10336 -60.27553,-4.6955 -12.26416,-7.10075 -22.39167,-18.12908 -28.76919,-30.75854 1.21151,-2.38509 5.519,-3.38129 7.75014,-5.29243 7.91463,-4.76805 15.83466,-9.52712 23.75305,-14.28891 6.26899,9.35376 15.257,18.96431 27.44252,18.75084 8.3844,1.01527 18.24776,-3.24114 19.64114,-12.37536 1.31496,-27.88056 0.52258,-55.83516 0.87468,-83.74504 0.0511,-17.86564 0.10224,-35.73128 0.15336,-53.59693 6.87906,0 13.75812,0 20.63719,0 z m 107.02401,0.14051 c 16.36332,-0.11938 33.11165,6.02001 43.6643,18.92333 2.7973,3.71046 7.41348,7.37675 7.54402,12.30163 -9.31761,6.63236 -19.19415,12.81446 -29.12159,18.44757 -4.58054,-5.6612 -8.74996,-12.74523 -16.43046,-14.57192 -8.85125,-2.55923 -21.51478,-1.03458 -24.87591,8.96433 -3.07241,8.33976 1.08218,17.89286 8.89618,21.89476 21.24821,12.00621 47.26591,17.73669 63.07549,37.7066 10.11459,12.00388 11.58735,28.65738 9.57826,43.63327 -2.91183,18.08168 -16.90329,33.08239 -34.1783,38.58395 -18.55781,5.97524 -39.35214,6.35194 -57.75908,-0.4229 -16.51401,-6.05846 -29.90272,-19.52316 -37.44325,-35.05748 9.5746,-7.33613 19.75679,-14.19268 30.41255,-19.80251 7.41579,10.75478 16.11115,23.49009 30.32352,24.87452 10.16234,0.98989 23.66107,-0.58401 27.69709,-11.70762 3.42748,-8.62253 -0.64699,-19.07284 -8.93808,-23.25073 -20.07509,-12.05718 -45.28141,-17.0023 -60.39009,-36.24549 -7.7177,-9.58204 -11.14168,-21.99568 -10.27587,-34.19813 -1.46342,-20.75638 13.7017,-40.47484 33.25906,-46.49663 8.01492,-2.70414 16.53112,-3.67517 24.96216,-3.57655 z"
     id="path3222"
     transform="scale(0.1)" />
</svg>
