<?xml version="1.0" encoding="UTF-8" standalone="no"?>
<svg
   xmlns:dc="http://purl.org/dc/elements/1.1/"
   xmlns:cc="http://creativecommons.org/ns#"
   xmlns:rdf="http://www.w3.org/1999/02/22-rdf-syntax-ns#"
   xmlns:svg="http://www.w3.org/2000/svg"
   xmlns="http://www.w3.org/2000/svg"
   xmlns:sodipodi="http://sodipodi.sourceforge.net/DTD/sodipodi-0.dtd"
   xmlns:inkscape="http://www.inkscape.org/namespaces/inkscape"
   version="1.1"
   id="Layer_1"
   x="0px"
   y="0px"
   viewBox="0 0 304.998 304.998"
   style="enable-background:new 0 0 304.998 304.998;"
   xml:space="preserve"
   sodipodi:docname="linux.svg"
   inkscape:version="1.0.2 (e86c870879, 2021-01-15)"><metadata
   id="metadata112"><rdf:RDF><cc:Work
       rdf:about=""><dc:format>image/svg+xml</dc:format><dc:type
         rdf:resource="http://purl.org/dc/dcmitype/StillImage" /></cc:Work></rdf:RDF></metadata><defs
   id="defs110" /><sodipodi:namedview
   pagecolor="#ffffff"
   bordercolor="#666666"
   borderopacity="1"
   objecttolerance="10"
   gridtolerance="10"
   guidetolerance="10"
   inkscape:pageopacity="0"
   inkscape:pageshadow="2"
   inkscape:window-width="2532"
   inkscape:window-height="1026"
   id="namedview108"
   showgrid="false"
   inkscape:zoom="2.7213293"
   inkscape:cx="152.499"
   inkscape:cy="151.9478"
   inkscape:window-x="909"
   inkscape:window-y="226"
   inkscape:window-maximized="0"
   inkscape:current-layer="Layer_1" />
<g
   id="XMLID_91_">
	<path
   id="XMLID_92_"
   d="M274.659,244.888c-8.944-3.663-12.77-8.524-12.4-15.777c0.381-8.466-4.422-14.667-6.703-17.117   c1.378-5.264,5.405-23.474,0.004-39.291c-5.804-16.93-23.524-42.787-41.808-68.204c-7.485-10.438-7.839-21.784-8.248-34.922   c-0.392-12.531-0.834-26.735-7.822-42.525C190.084,9.859,174.838,0,155.851,0c-11.295,0-22.889,3.53-31.811,9.684   c-18.27,12.609-15.855,40.1-14.257,58.291c0.219,2.491,0.425,4.844,0.545,6.853c1.064,17.816,0.096,27.206-1.17,30.06   c-0.819,1.865-4.851,7.173-9.118,12.793c-4.413,5.812-9.416,12.4-13.517,18.539c-4.893,7.387-8.843,18.678-12.663,29.597   c-2.795,7.99-5.435,15.537-8.005,20.047c-4.871,8.676-3.659,16.766-2.647,20.505c-1.844,1.281-4.508,3.803-6.757,8.557   c-2.718,5.8-8.233,8.917-19.701,11.122c-5.27,1.078-8.904,3.294-10.804,6.586c-2.765,4.791-1.259,10.811,0.115,14.925   c2.03,6.048,0.765,9.876-1.535,16.826c-0.53,1.604-1.131,3.42-1.74,5.423c-0.959,3.161-0.613,6.035,1.026,8.542   c4.331,6.621,16.969,8.956,29.979,10.492c7.768,0.922,16.27,4.029,24.493,7.035c8.057,2.944,16.388,5.989,23.961,6.913   c1.151,0.145,2.291,0.218,3.39,0.218c11.434,0,16.6-7.587,18.238-10.704c4.107-0.838,18.272-3.522,32.871-3.882   c14.576-0.416,28.679,2.462,32.674,3.357c1.256,2.404,4.567,7.895,9.845,10.724c2.901,1.586,6.938,2.495,11.073,2.495   c0.001,0,0,0,0.001,0c4.416,0,12.817-1.044,19.466-8.039c6.632-7.028,23.202-16,35.302-22.551c2.7-1.462,5.226-2.83,7.441-4.065   c6.797-3.768,10.506-9.152,10.175-14.771C282.445,250.905,279.356,246.811,274.659,244.888z M124.189,243.535   c-0.846-5.96-8.513-11.871-17.392-18.715c-7.26-5.597-15.489-11.94-17.756-17.312c-4.685-11.082-0.992-30.568,5.447-40.602   c3.182-5.024,5.781-12.643,8.295-20.011c2.714-7.956,5.521-16.182,8.66-19.783c4.971-5.622,9.565-16.561,10.379-25.182   c4.655,4.444,11.876,10.083,18.547,10.083c1.027,0,2.024-0.134,2.977-0.403c4.564-1.318,11.277-5.197,17.769-8.947   c5.597-3.234,12.499-7.222,15.096-7.585c4.453,6.394,30.328,63.655,32.972,82.044c2.092,14.55-0.118,26.578-1.229,31.289   c-0.894-0.122-1.96-0.221-3.08-0.221c-7.207,0-9.115,3.934-9.612,6.283c-1.278,6.103-1.413,25.618-1.427,30.003   c-2.606,3.311-15.785,18.903-34.706,21.706c-7.707,1.12-14.904,1.688-21.39,1.688c-5.544,0-9.082-0.428-10.551-0.651l-9.508-10.879   C121.429,254.489,125.177,250.583,124.189,243.535z M136.254,64.149c-0.297,0.128-0.589,0.265-0.876,0.411   c-0.029-0.644-0.096-1.297-0.199-1.952c-1.038-5.975-5-10.312-9.419-10.312c-0.327,0-0.656,0.025-1.017,0.08   c-2.629,0.438-4.691,2.413-5.821,5.213c0.991-6.144,4.472-10.693,8.602-10.693c4.85,0,8.947,6.536,8.947,14.272   C136.471,62.143,136.4,63.113,136.254,64.149z M173.94,68.756c0.444-1.414,0.684-2.944,0.684-4.532   c0-7.014-4.45-12.509-10.131-12.509c-5.552,0-10.069,5.611-10.069,12.509c0,0.47,0.023,0.941,0.067,1.411   c-0.294-0.113-0.581-0.223-0.861-0.329c-0.639-1.935-0.962-3.954-0.962-6.015c0-8.387,5.36-15.211,11.95-15.211   c6.589,0,11.95,6.824,11.95,15.211C176.568,62.78,175.605,66.11,173.94,68.756z M169.081,85.08   c-0.095,0.424-0.297,0.612-2.531,1.774c-1.128,0.587-2.532,1.318-4.289,2.388l-1.174,0.711c-4.718,2.86-15.765,9.559-18.764,9.952   c-2.037,0.274-3.297-0.516-6.13-2.441c-0.639-0.435-1.319-0.897-2.044-1.362c-5.107-3.351-8.392-7.042-8.763-8.485   c1.665-1.287,5.792-4.508,7.905-6.415c4.289-3.988,8.605-6.668,10.741-6.668c0.113,0,0.215,0.008,0.321,0.028   c2.51,0.443,8.701,2.914,13.223,4.718c2.09,0.834,3.895,1.554,5.165,2.01C166.742,82.664,168.828,84.422,169.081,85.08z    M205.028,271.45c2.257-10.181,4.857-24.031,4.436-32.196c-0.097-1.855-0.261-3.874-0.42-5.826   c-0.297-3.65-0.738-9.075-0.283-10.684c0.09-0.042,0.19-0.078,0.301-0.109c0.019,4.668,1.033,13.979,8.479,17.226   c2.219,0.968,4.755,1.458,7.537,1.458c7.459,0,15.735-3.659,19.125-7.049c1.996-1.996,3.675-4.438,4.851-6.372   c0.257,0.753,0.415,1.737,0.332,3.005c-0.443,6.885,2.903,16.019,9.271,19.385l0.927,0.487c2.268,1.19,8.292,4.353,8.389,5.853   c-0.001,0.001-0.051,0.177-0.387,0.489c-1.509,1.379-6.82,4.091-11.956,6.714c-9.111,4.652-19.438,9.925-24.076,14.803   c-6.53,6.872-13.916,11.488-18.376,11.488c-0.537,0-1.026-0.068-1.461-0.206C206.873,288.406,202.886,281.417,205.028,271.45z    M39.917,245.477c-0.494-2.312-0.884-4.137-0.465-5.905c0.304-1.31,6.771-2.714,9.533-3.313c3.883-0.843,7.899-1.714,10.525-3.308   c3.551-2.151,5.474-6.118,7.17-9.618c1.228-2.531,2.496-5.148,4.005-6.007c0.085-0.05,0.215-0.108,0.463-0.108   c2.827,0,8.759,5.943,12.177,11.262c0.867,1.341,2.473,4.028,4.331,7.139c5.557,9.298,13.166,22.033,17.14,26.301   c3.581,3.837,9.378,11.214,7.952,17.541c-1.044,4.909-6.602,8.901-7.913,9.784c-0.476,0.108-1.065,0.163-1.758,0.163   c-7.606,0-22.662-6.328-30.751-9.728l-1.197-0.503c-4.517-1.894-11.891-3.087-19.022-4.241c-5.674-0.919-13.444-2.176-14.732-3.312   c-1.044-1.171,0.167-4.978,1.235-8.337c0.769-2.414,1.563-4.91,1.998-7.523C41.225,251.596,40.499,248.203,39.917,245.477z" />
</g>
<g
   id="g77">
</g>
<g
   id="g79">
</g>
<g
   id="g81">
</g>
<g
   id="g83">
</g>
<g
   id="g85">
</g>
<g
   id="g87">
</g>
<g
   id="g89">
</g>
<g
   id="g91">
</g>
<g
   id="g93">
</g>
<g
   id="g95">
</g>
<g
   id="g97">
</g>
<g
   id="g99">
</g>
<g
   id="g101">
</g>
<g
   id="g103">
</g>
<g
   id="g105">
</g>
<path
   style="fill:#212529;stroke-width:0.367467"
   d="M 155.35261,0.20382961 C 143.34404,0.5030992 131.02497,4.1496371 121.66618,11.873075 c -9.61349,8.19675 -12.22823,21.412516 -12.73431,33.438111 -0.36097,14.019274 2.16175,27.934209 1.82584,41.962338 -0.27126,6.132948 0.7306,12.701936 -1.93997,18.436536 -8.04183,12.21788 -17.926491,23.19521 -25.203101,35.91635 -6.908028,14.15184 -10.589317,29.62487 -17.326297,43.84047 -3.484135,6.34619 -4.768691,13.85526 -3.02006,20.9307 -3.880641,3.01178 -5.845713,7.56133 -8.517,11.5139 -5.454562,6.52917 -14.522165,7.01392 -22.047395,9.57385 -4.976321,1.69085 -8.654379,6.7593 -7.889573,12.10345 -0.228961,5.88267 3.639117,11.36927 1.971337,17.29682 -1.077117,6.24776 -4.80558,12.17113 -3.999079,18.654 1.884319,6.06523 8.602662,8.6017 14.198455,10.12616 10.541051,2.78719 21.673019,2.85713 31.948684,6.74787 11.107469,3.50128 21.840044,8.70083 33.500719,10.1054 5.554,0.7171 11.45672,-0.28163 15.83412,-3.97539 2.30672,-1.71689 4.12431,-3.98854 5.56225,-6.46226 21.57735,-4.15029 44.07218,-5.52561 65.61303,-0.41412 3.53973,6.00367 8.86683,11.68026 16.09106,12.73791 8.29805,1.38468 17.24894,-0.92275 23.34423,-6.86418 10.85585,-10.08126 24.34279,-16.61656 37.12439,-23.85231 6.02033,-3.46464 13.51988,-6.52005 15.89571,-13.68463 1.58248,-5.0007 -0.37223,-10.90784 -5.02755,-13.55036 -4.96046,-3.0855 -11.55982,-5.0353 -13.73553,-11.09149 -1.92592,-5.04277 -0.33959,-10.76641 -2.8486,-15.68771 -1.15433,-2.83089 -3.00566,-5.28878 -4.85745,-7.69241 3.37582,-14.89363 4.34326,-31.35033 -2.62287,-45.40508 C 244.16903,147.64854 231.838,130.75032 220.072,113.69528 214.64432,105.9909 208.23515,98.287869 207.00012,88.595459 204.1372,70.585044 206.48907,51.767322 200.25749,34.321365 196.26901,21.48484 187.67869,9.4651962 175.01571,4.1038653 168.85245,1.3729656 162.07893,0.13599199 155.35261,0.20382961 Z M 165.43715,44.10471 c 6.29248,0.320839 10.301,6.703746 11.05992,12.445087 0.63485,4.150894 -0.13438,8.943045 -2.55362,12.247003 1.01146,-5.423323 0.29078,-12.13626 -4.78353,-15.39129 -4.69714,-3.395848 -11.27759,-0.256555 -13.20587,4.773491 -1.34068,2.231302 -0.75999,5.077581 -1.70169,7.322076 -1.52325,-0.455282 -1.28313,-2.917519 -1.62489,-4.219416 -0.79732,-6.903024 2.67303,-15.279331 9.91158,-17.087958 0.96034,-0.123032 1.93224,-0.0961 2.8981,-0.08899 z m -37.72139,2.758159 c 5.51852,0.429011 7.85725,6.485507 8.63046,11.223548 0.17382,2.084419 1.02128,4.891734 -0.52321,6.544794 -1.27478,-0.937589 -0.71759,-3.174254 -1.53662,-4.515113 -1.3781,-4.445467 -6.14016,-9.278998 -11.08431,-7.027815 -1.93967,1.011998 -3.27846,2.851029 -4.50506,4.60411 0.80213,-4.646516 3.50287,-10.781569 9.01874,-10.829524 z m 16.18292,27.552164 c 6.51446,1.398776 12.59962,4.372609 18.81046,6.738578 2.09274,1.176208 5.16341,1.680381 6.3259,3.947405 -1.16732,2.009481 -4.01954,2.415011 -5.78824,3.843783 -6.75175,3.700199 -13.12546,8.305493 -20.42396,10.875729 -4.05392,0.987332 -7.15094,-2.778903 -10.23455,-4.748367 -2.5205,-2.222142 -5.66747,-4.158997 -7.27686,-7.146955 3.76545,-3.935507 8.2623,-7.176306 12.50968,-10.587657 1.89125,-1.148361 3.82431,-2.655805 6.07757,-2.922516 z m 32.17565,20.670045 c 3.20926,4.66616 5.38085,10.125752 7.98596,15.196072 8.62062,18.46435 16.50948,37.3213 22.80572,56.71261 3.85628,11.92224 3.87585,24.78857 2.1849,37.09761 -0.63807,1.51598 0.0773,4.88037 -2.3921,4.34198 -4.15027,0.0126 -9.83256,0.58296 -11.01827,5.45497 -1.70579,9.80123 -1.28169,19.8399 -1.70493,29.75293 0.17971,2.52896 -2.87625,3.67063 -4.19311,5.55794 -8.76518,9.22561 -20.37597,16.22566 -33.22435,17.47922 -9.59664,1.12737 -19.41339,2.06532 -29.01411,0.62618 -3.16124,-2.36016 -5.35347,-5.90135 -8.10152,-8.74816 -0.48022,-0.93342 -2.9641,-2.29464 -0.87273,-2.9785 6.23958,-3.31429 7.40764,-12.51057 2.72228,-17.63915 -5.82527,-6.94003 -13.60335,-11.8574 -20.45966,-17.68887 -5.927827,-4.76259 -12.605659,-10.20891 -13.425336,-18.34722 -1.478597,-9.27843 0.140494,-18.88939 3.35809,-27.64167 2.462665,-6.25407 6.503035,-11.7583 8.537508,-18.2084 3.976188,-9.77043 6.255238,-20.40921 12.210598,-29.25625 5.61023,-7.15057 8.76048,-15.95112 10.38382,-24.77534 5.55017,4.20003 11.28602,9.67801 18.69419,9.77305 6.63701,-0.84494 12.24631,-4.98698 18.08773,-7.94505 5.68952,-2.96764 11.06166,-6.802102 17.19202,-8.776869 l 0.13134,-7.2e-4 z M 71.359743,217.00031 c 4.946887,1.90657 8.401739,6.43056 11.46648,10.58572 8.405635,12.97032 15.549886,26.85566 25.682817,38.63037 3.32698,4.54737 6.55625,11.01635 3.04892,16.38546 -2.23055,3.4937 -5.66226,7.65057 -10.32929,6.79097 -12.996651,-1.61574 -24.386603,-8.82487 -36.965731,-11.96881 -8.634711,-2.09319 -17.597437,-2.77608 -26.129576,-5.23398 -2.58098,-1.43324 -0.605973,-4.91871 -0.250089,-7.07787 1.832981,-5.71106 3.659812,-11.73153 2.220267,-17.75983 -0.120483,-2.6383 -1.668533,-5.59854 -0.511074,-8.12528 3.429063,-2.38514 7.935433,-2.44399 11.835036,-3.73065 4.468601,-1.05403 9.368792,-2.40804 11.832165,-6.68978 2.890437,-3.67587 3.944708,-8.78676 7.669447,-11.75321 0.136371,-0.0532 0.285305,-0.0729 0.430628,-0.0531 z m 137.406997,5.75747 c 1.18364,4.22426 1.1363,9.02019 3.90865,12.72571 4.23093,6.03378 12.74616,6.48486 19.28343,4.68808 6.82176,-1.4551 12.81828,-5.74103 16.54895,-11.61254 1.24983,-1.22638 0.94488,1.68118 1.00193,2.31891 -0.0379,7.50782 2.9122,15.8821 9.92332,19.5437 2.84424,2.00436 6.64337,3.14245 8.64455,6.09075 -1.17752,1.98957 -3.97057,2.69823 -5.83868,4.01758 -11.33284,6.41165 -23.95572,11.17861 -33.17962,20.71327 -4.6011,3.87067 -9.59169,8.59665 -15.93316,8.87663 -5.34721,-0.29609 -8.22415,-6.13174 -8.69649,-10.86541 -0.17465,-8.97905 2.8806,-17.62185 3.92619,-26.48362 1.80164,-9.83917 0.055,-19.79752 0.15542,-29.68148 0.0517,-0.10566 0.10054,-0.34252 0.25551,-0.33158 z"
   id="path116" /></svg>
