<?xml version="1.0" encoding="UTF-8" standalone="no"?>
<svg
   xmlns:dc="http://purl.org/dc/elements/1.1/"
   xmlns:cc="http://creativecommons.org/ns#"
   xmlns:rdf="http://www.w3.org/1999/02/22-rdf-syntax-ns#"
   xmlns:svg="http://www.w3.org/2000/svg"
   xmlns="http://www.w3.org/2000/svg"
   xmlns:sodipodi="http://sodipodi.sourceforge.net/DTD/sodipodi-0.dtd"
   xmlns:inkscape="http://www.inkscape.org/namespaces/inkscape"
   version="1.1"
   width="512px"
   height="512px"
   id="svg52"
   sodipodi:docname="ocaml.svg"
   inkscape:version="1.0.2 (e86c870879, 2021-01-15)">
  <metadata
     id="metadata58">
    <rdf:RDF>
      <cc:Work
         rdf:about="">
        <dc:format>image/svg+xml</dc:format>
        <dc:type
           rdf:resource="http://purl.org/dc/dcmitype/StillImage" />
      </cc:Work>
    </rdf:RDF>
  </metadata>
  <defs
     id="defs56" />
  <sodipodi:namedview
     pagecolor="#ffffff"
     bordercolor="#666666"
     borderopacity="1"
     objecttolerance="10"
     gridtolerance="10"
     guidetolerance="10"
     inkscape:pageopacity="0"
     inkscape:pageshadow="2"
     inkscape:window-width="2532"
     inkscape:window-height="1026"
     id="namedview54"
     showgrid="false"
     inkscape:zoom="1.6210938"
     inkscape:cx="256"
     inkscape:cy="255.0747"
     inkscape:window-x="909"
     inkscape:window-y="226"
     inkscape:window-maximized="0"
     inkscape:current-layer="svg52" />
  <style
     type="text/css"
     id="style48">.st0{fill:#181816;}</style>
  <path
     class="st0"
     d="M0,223.6L0,97.4c0-35.6,28.9-64.5,64.5-64.5h383c35.6,0,64.5,28.9,64.5,64.5V479l-212.5,0c0,0-14.1-37-16.8-55.2c-0.7-4.7,0.7-9.4-0.8-13.8c-1.2-3.8-4-4.2-5.8-7.3c-4.8-8.2-9.8-18.8-10.2-28.8c-0.4-9-3.7-17.2-4.2-26.1c-0.2-4.3,0.3-8.8,0.1-13c-0.1-2.1-0.3-6.9-1.3-9.9l1.1-2.8c-0.5-1,9.6-0.6,12.6-0.6c5.1,0.1,9.9,0.3,15,0.6c10.4,0.5,19.8,0.4,29.9-1.2c22.5-3.5,32.9-12.7,38.2-16.5c20.7-14.9,30.1-39.3,30.1-39.3c3.4-7.6,3.4-21.2,10.7-27.3c8.6-7.2,23.1-6.7,33-11.1c5.8-2.6,10-4,15.9-2.7c4.4,0.9,12.3,6,14.1-1.1c-1.5-0.9-2-2.7-2.8-3.6c8.2-0.8,0.2-19.7-3.1-23.5c-5-5.8-13.3-8.5-22.1-10.8c-10.5-2.8-20-6-29.9-4.1c-17.3,3.4-16-6.5-26.2-6.5c-12.2,0-33.9,0.6-37.7,12.5c-1.7,5.5-3.6,5.8-6.6,10c-2.6,3.6,0.5,6.9-0.9,11c-1.3,4.3-3.3,19.3-5.4,24.6c-3.5,8.9-7.6,20-15.3,20c-10.7,1.3-19.2,1.7-27.9-1.5c-5.2-1.9-14-4.9-18.4-6.7c-20.1-8.4-23.4-17.7-23.4-17.7c-2.2-3.6-23.4-47.8-26.5-55.4c-4-9.9-9.6-17.2-13.6-20.9c-6.2-5.6-12-14.2-24.7-11.7c-2.3,0.4-10.5,0.8-16.8,6.1c-4.3,3.6-5.6,11-9.6,17.3c-2.3,3.6-6.3,14-10,22.6c-2.6,6-3.8,10.5-6.5,12.7c-2.2,1.7-7.5,6-14.4-1c-2.6-2.7-9-13.9-13.7-22c-13.7-23.8-19.1-34.5-34.8-34.6c-20-0.1-21.5,11.2-30.3,27.5C40.5,167.1,31.7,200.3,0,223.6z M0,369.7L0,479h99.2c0,0,8-30.9,9.8-37.2c1.5-4.8,3.4-8.7,4.2-13.6c0.7-4.7-0.1-9.2-0.5-13.4c-1-10.7,7.8-14.5,12-23.7c3.8-8.3,6-17.7,9.1-26.2c3-8.1,7.7-19.6,15.8-23.7c-1-1.1-16.8-1.6-21-2.1c-13-1.4-31.5-5.3-39.9-7.3c-5.1-1.2-22.1-7.3-25.8-9c-8.7-4-14.4-14.8-21.2-13.7c-4.3,0.7-8.5,2.2-11.2,6.5c-2.2,3.6-2.9,9.7-4.5,13.8c-1.8,4.8-4.8,9.2-7.5,13.7C13.8,351.4,3.1,360.4,0,369.7z M275.9,462.3c-1.9-4-4.3-11.8-5.9-15.3c-1.5-3.2-6.1-11.6-8.4-14.3c-5-5.9-6.2-6.3-7.7-13.7c-2.6-12.9-9.3-36.3-17.3-52.4c-4.1-8.3-11-15.3-17.3-21.3c-5.5-5.3-17.8-14.2-20-13.8c-20.2,4-26.4,23.8-35.9,39.5c-5.3,8.7-10.8,16-15,25.3c-3.8,8.5-3.5,17.9-10,25.2c-6.7,7.5-11.1,15.4-14.4,25.1c-0.6,1.8-6.3,32.4-6.3,32.4h164.7l-0.3-0.7C279.9,472,277,464.7,275.9,462.3z"
     id="path50" />
  <path
     style="fill:#212529;stroke-width:0.616867"
     d="M 219.61807,30.985542 C 165.44411,31.15665 111.25896,30.827137 57.092771,31.657831 34.065965,34.30993 12.798414,49.63846 3.8144579,71.144578 -3.638979,87.338843 -1.2273225,105.56979 -1.8785897,122.82507 -2.0768796,155.39302 -1.9674118,187.96179 -2,220.53012 c 1.42777042,3.79868 6.593628,1.63517 8.8433735,-0.36265 16.2653965,-13.3992 27.7687525,-31.81018 35.1497475,-51.39764 3.71596,-7.62426 6.801602,-15.93008 12.583987,-22.26019 6.081771,-5.35476 14.694105,-5.2974 22.236142,-4.25301 10.401971,2.91906 15.51199,13.52519 20.867196,21.91761 6.994434,11.09297 12.709104,23.07416 20.760524,33.4607 4.99301,6.54858 15.97861,4.38787 19.12289,-2.86265 6.8965,-15.50203 13.08471,-31.24119 21.3253,-46.11205 4.99849,-7.13276 14.50821,-8.12636 22.51566,-8.66265 9.11607,0.22239 14.85942,8.50847 20.84189,14.26415 9.53914,9.69002 12.84591,23.33185 19.07497,35.04718 6.96238,14.24992 13.43321,28.81148 21.50603,42.47301 10.59316,11.42869 26.20455,15.84057 40.45626,20.83691 9.6707,3.52511 20.3221,2.78356 30.27868,1.08598 7.96835,-3.09381 10.90427,-12.12694 13.90241,-19.36868 2.92386,-10.34439 5.59729,-20.95917 6.10964,-31.7265 -1.19819,-5.46427 4.86486,-8.42397 6.39579,-13.12771 1.68846,-4.39857 4.7564,-8.31492 9.44638,-9.68072 10.19486,-3.62906 21.06559,-4.10189 31.66626,-2.92169 4.7215,2.71461 9.38714,6.76967 15.28796,6.0253 10.61798,-1.06635 21.56801,-0.71694 31.69676,2.48243 9.56254,3.06405 21.39552,4.67374 27.19842,13.92359 2.71333,5.19625 5.70667,11.22732 4.33012,17.17591 -1.83027,1.88493 -1.31534,5.00461 -0.79639,7.0012 -3.23469,2.82907 -7.71034,-0.61468 -11.30843,-1.01927 -9.3696,-2.3158 -17.78518,3.7746 -26.68907,5.42446 -9.44551,2.64683 -21.24911,3.53262 -27.06997,12.58758 -5.15021,8.97987 -5.32448,19.8521 -10.3506,28.93253 -9.84788,20.14895 -26.96355,37.42786 -47.99369,45.55584 -20.90626,7.58717 -43.02492,5.19471 -64.75084,4.76993 -3.81912,0.24732 -10.4103,-1.2578 -11.46632,3.92604 0.38122,7.45501 1.27832,14.8299 1.03615,22.31928 0.28368,10.69045 3.50147,20.95214 4.49879,31.5506 2.12934,11.60386 6.67592,23.06605 14.82651,31.76144 2.40088,5.50409 0.66583,11.85679 2.07831,17.64097 3.60905,17.78942 9.99046,34.87995 15.98555,51.97108 2.13755,2.83987 6.58408,1.11307 9.63855,1.76868 68.2525,0.60872 136.51038,0.19682 204.76506,0.32048 3.72087,-1.32097 1.31826,-6.4043 1.99981,-9.40241 C 513.86548,347.19432 514.32756,222.79082 513.53549,98.391873 514.32246,72.714102 498.44907,47.468018 474.79513,37.327479 464.87362,32.387797 453.69274,30.932714 442.72291,31.410336 368.3563,30.910051 293.986,30.997483 219.61807,30.985542 Z"
     id="path60" />
  <path
     style="fill:#212529;stroke-width:0.616867"
     d="m 42.016867,307.50723 c -6.74602,0.2531 -12.898038,4.89912 -14.631325,11.49518 -2.902178,11.66773 -8.914569,22.26425 -16.468616,31.54298 C 6.2034876,356.89828 0.16958162,362.89911 -2,370.6265 c 0,36.12611 0,72.25222 0,108.37832 1.32266194,3.7263 6.4085047,1.30361 9.4083963,1.97638 30.5008157,-0.0974 61.0016327,-0.1947 91.5024467,-0.29204 3.404657,-1.43943 2.656587,-6.37065 4.089137,-9.34124 3.67792,-14.32701 7.47262,-28.54603 11.96869,-42.55395 0.40276,-7.1716 -1.46543,-14.72517 0.84579,-21.66144 4.13233,-6.97619 10.28917,-12.82925 12.57229,-20.84337 5.0299,-12.9592 7.77185,-27.02121 15.95542,-38.46747 1.65254,-2.50174 6.41764,-4.5205 4.7494,-8.10723 -2.94178,-2.08352 -7.22659,-0.73475 -10.62897,-1.60478 -25.42757,-2.16008 -51.008836,-6.77629 -74.638506,-16.99522 -7.248437,-3.16949 -11.701725,-10.66485 -19.138552,-13.36265 -0.872949,-0.20265 -1.773834,-0.27697 -2.668675,-0.24458 z"
     id="path62" />
  <path
     style="fill:#212529;stroke-width:0.616867"
     d="m 195.37349,330.80241 c -14.24631,4.31713 -21.7949,18.3176 -28.48214,30.48195 -6.66964,12.6721 -15.8912,24.01934 -21.1034,37.4301 -2.78622,8.62822 -4.52712,18.11275 -11.22796,24.77274 -7.45614,9.2779 -12.28903,20.46076 -14.07927,32.22003 -1.41828,7.59525 -3.24275,15.1947 -4.24337,22.82048 1.73694,3.34385 6.60295,1.59756 9.61603,2.24496 51.91184,0.36287 103.83191,0.35338 155.74301,-0.10038 4.24755,-0.7698 1.0684,-5.32282 0.30937,-7.75439 -6.35358,-15.30469 -10.73076,-31.92234 -21.80499,-44.72763 -4.98897,-5.97531 -4.97239,-14.32707 -7.44333,-21.43001 -4.90413,-17.01973 -9.73533,-34.63138 -19.90684,-49.37713 -8.36061,-10.12828 -18.15784,-19.35603 -29.5024,-26.05301 -2.56294,-1.89316 -5.04678,-1.94393 -7.87471,-0.52771 z"
     id="path64" />
</svg>
