<?xml version="1.0" encoding="UTF-8" standalone="no"?>
<svg
   xmlns:dc="http://purl.org/dc/elements/1.1/"
   xmlns:cc="http://creativecommons.org/ns#"
   xmlns:rdf="http://www.w3.org/1999/02/22-rdf-syntax-ns#"
   xmlns:svg="http://www.w3.org/2000/svg"
   xmlns="http://www.w3.org/2000/svg"
   xmlns:sodipodi="http://sodipodi.sourceforge.net/DTD/sodipodi-0.dtd"
   xmlns:inkscape="http://www.inkscape.org/namespaces/inkscape"
   fill="#000000"
   viewBox="0 0 50 50"
   width="500px"
   height="500px"
   version="1.1"
   id="svg3268"
   sodipodi:docname="python.svg"
   inkscape:version="1.0.2 (e86c870879, 2021-01-15)">
  <metadata
     id="metadata3274">
    <rdf:RDF>
      <cc:Work
         rdf:about="">
        <dc:format>image/svg+xml</dc:format>
        <dc:type
           rdf:resource="http://purl.org/dc/dcmitype/StillImage" />
      </cc:Work>
    </rdf:RDF>
  </metadata>
  <defs
     id="defs3272" />
  <sodipodi:namedview
     pagecolor="#ffffff"
     bordercolor="#666666"
     borderopacity="1"
     objecttolerance="10"
     gridtolerance="10"
     guidetolerance="10"
     inkscape:pageopacity="0"
     inkscape:pageshadow="2"
     inkscape:window-width="2532"
     inkscape:window-height="1026"
     id="namedview3270"
     showgrid="false"
     inkscape:zoom="1.404"
     inkscape:cx="250"
     inkscape:cy="248.93162"
     inkscape:window-x="909"
     inkscape:window-y="226"
     inkscape:window-maximized="0"
     inkscape:current-layer="svg3268" />
  <path
     d="M 24.5 2 C 15.800781 2 14 6.492188 14 9.09375 L 14 14 L 24 14 L 24 15 L 9.09375 15 C 5.792969 15 2 17.601563 2 25 C 2 32.398438 5.792969 35 9.09375 35 L 15 35 L 15 29 C 15 26.800781 16.800781 25 19 25 L 31 25 C 32.699219 25 34 23.699219 34 22 L 34 9.09375 C 34 5.59375 30.699219 2 24.5 2 Z M 20 7 C 21.101563 7 22 7.898438 22 9 C 22 10.101563 21.101563 11 20 11 C 18.898438 11 18 10.101563 18 9 C 18 7.898438 18.898438 7 20 7 Z M 35 15 L 35 22 C 35 24.199219 33.199219 26 31 26 L 19 26 C 17.300781 26 16 27.300781 16 29 L 16 40.90625 C 16 44.40625 19.300781 48 25.5 48 C 34.199219 48 36 43.507813 36 40.90625 L 36 36 L 26 36 L 26 35 L 40.90625 35 C 44.207031 35 48 32.398438 48 25 C 48 17.601563 44.207031 15 40.90625 15 Z M 30 39 C 31.101563 39 32 39.898438 32 41 C 32 42.101563 31.101563 43 30 43 C 28.898438 43 28 42.101563 28 41 C 28 39.898438 28.898438 39 30 39 Z"
     id="path3266" />
  <path
     style="fill:#212529;stroke-width:0.712251"
     d="m 240.54042,20.663617 c -26.00481,0.02458 -53.32886,4.992153 -74.72094,20.612147 -12.73522,9.413742 -21.56967,23.852097 -24.8014,39.208529 -0.14401,19.824327 -0.28802,39.648647 -0.43203,59.472967 33.26619,0 66.53238,0 99.79857,0 -1.07254,3.20105 2.34779,10.89464 -2.13676,10.68392 -51.19547,0.20527 -102.40174,-0.43487 -153.590185,0.43109 -23.969235,1.28411 -44.07361,19.45061 -53.348043,40.77228 -11.449571,26.00878 -12.729352,55.42669 -9.233006,83.29561 3.372193,25.91821 14.970835,53.125 38.618571,66.5397 10.225113,6.19636 22.268482,8.01886 34.049418,7.53569 18.394325,0.1378 36.789465,0.0953 55.184155,0.14342 0.36382,-22.49943 -0.81958,-45.06978 0.82711,-67.52246 2.73216,-15.38465 16.06379,-28.40105 31.34381,-31.24668 32.40698,-1.33426 64.87542,-0.65241 97.30691,-1.1153 13.37242,-0.46071 26.92321,0.62046 40.17835,-1.30246 9.66565,-3.22429 17.262,-11.90793 19.44639,-21.67634 0,-48.67047 0,-97.34094 0,-146.0114 C 334.14619,59.904086 319.51254,42.483907 300.80067,32.932509 282.34984,23.025216 261.2458,20.071719 240.54042,20.663617 Z m -40.19486,49.25798 c 11.19606,-0.161134 21.28049,10.469397 19.662,21.757035 -0.2589,12.537288 -14.53693,21.805598 -26.23502,17.429278 -10.87325,-3.02292 -16.88703,-16.238188 -12.54925,-26.450659 3.0838,-7.827454 10.52907,-13.271267 19.12227,-12.735654 z"
     id="path3276"
     transform="scale(0.1)" />
  <path
     style="fill:#212529;stroke-width:0.712251"
     d="m 350.07123,188.10931 c -0.48486,14.70892 1.13183,29.68734 -1.73941,44.20081 -5.29208,15.94658 -21.29276,28.70688 -38.50555,27.50002 -41.9,0.85624 -83.83315,0.032 -125.7192,1.35633 -11.43438,1.38059 -20.67314,11.49566 -23.13841,22.30931 0,45.34663 0,90.69326 0,136.03989 4.88669,20.59929 19.54793,38.03253 38.28555,47.56911 19.94645,10.48936 42.93807,13.58025 65.21845,12.09551 26.69416,-0.70144 55.14657,-6.74142 75.36621,-25.31142 9.72526,-9.08529 16.40283,-21.4524 19.14305,-34.35316 0.14401,-19.82433 0.28802,-39.64865 0.43203,-59.47297 -33.26619,0 -66.53238,0 -99.79857,0 1.07254,-3.20105 -2.34779,-10.89464 2.13676,-10.68392 51.19547,-0.20527 102.40174,0.43487 153.59018,-0.43109 23.96924,-1.28411 44.07361,-19.45061 53.34805,-40.77228 11.44957,-26.00878 12.72935,-55.42669 9.23301,-83.29561 -3.35854,-25.01368 -13.93818,-51.4314 -36.35576,-65.11397 -9.25565,-5.95431 -20.04449,-9.19694 -31.08167,-8.87114 -20.13469,-0.42672 -40.27688,-0.14671 -60.41472,-0.2337 0,12.48942 0,24.97885 0,37.46828 z M 301.4003,390.0463 c 11.07855,0.0852 19.8813,11.07931 18.72718,21.90032 -0.86534,11.56004 -13.02768,20.93525 -24.45719,17.76731 -9.72388,-2.11258 -17.27587,-11.81627 -15.63334,-21.90588 0.46955,-10.60253 10.908,-18.89599 21.36335,-17.76175 z"
     id="path3278"
     transform="scale(0.1)" />
</svg>
