<?xml version="1.0" encoding="UTF-8" standalone="no"?>
<svg
   xmlns:dc="http://purl.org/dc/elements/1.1/"
   xmlns:cc="http://creativecommons.org/ns#"
   xmlns:rdf="http://www.w3.org/1999/02/22-rdf-syntax-ns#"
   xmlns:svg="http://www.w3.org/2000/svg"
   xmlns="http://www.w3.org/2000/svg"
   xmlns:sodipodi="http://sodipodi.sourceforge.net/DTD/sodipodi-0.dtd"
   xmlns:inkscape="http://www.inkscape.org/namespaces/inkscape"
   version="1.1"
   id="circle_pieces"
   x="0px"
   y="0px"
   width="511.875px"
   height="511.824px"
   viewBox="0 0 511.875 511.824"
   enable-background="new 0 0 511.875 511.824"
   xml:space="preserve"
   sodipodi:docname="racket.svg"
   inkscape:version="1.0.2 (e86c870879, 2021-01-15)"><metadata
   id="metadata56"><rdf:RDF><cc:Work
       rdf:about=""><dc:format>image/svg+xml</dc:format><dc:type
         rdf:resource="http://purl.org/dc/dcmitype/StillImage" /></cc:Work></rdf:RDF></metadata><defs
   id="defs54" /><sodipodi:namedview
   pagecolor="#ffffff"
   bordercolor="#666666"
   borderopacity="1"
   objecttolerance="10"
   gridtolerance="10"
   guidetolerance="10"
   inkscape:pageopacity="0"
   inkscape:pageshadow="2"
   inkscape:window-width="2532"
   inkscape:window-height="1026"
   id="namedview52"
   showgrid="false"
   inkscape:zoom="1.6216512"
   inkscape:cx="255.9375"
   inkscape:cy="254.98702"
   inkscape:window-x="909"
   inkscape:window-y="226"
   inkscape:window-maximized="0"
   inkscape:current-layer="circle_pieces" />
<circle
   id="circle"
   fill="#FFFFFF"
   cx="256.252"
   cy="255.986"
   r="253.093" />
<path
   id="blue-piece"
   fill="#3E5BA9"
   d="M455.398,412.197c33.792-43.021,53.946-97.262,53.946-156.211  c0-139.779-113.313-253.093-253.093-253.093c-30.406,0-59.558,5.367-86.566,15.197C272.435,71.989,408.349,247.839,455.398,412.197z  " />
<path
   id="left-red-piece"
   fill="#9F1D20"
   d="M220.003,164.337c-39.481-42.533-83.695-76.312-130.523-98.715  C36.573,112.011,3.159,180.092,3.159,255.986c0,63.814,23.626,122.104,62.597,166.623  C100.111,319.392,164.697,219.907,220.003,164.337z" />
<path
   id="bottom-red-piece"
   fill="#9F1D20"
   d="M266.638,221.727c-54.792,59.051-109.392,162.422-129.152,257.794  c35.419,18.857,75.84,29.559,118.766,29.559c44.132,0,85.618-11.306,121.74-31.163C357.171,381.712,317.868,293.604,266.638,221.727  z" />
<path
   style="fill:#212529;stroke-width:0.616655"
   d="M 89.599514,64.915028 C 84.128079,67.066797 80.357126,72.195912 75.995411,75.980846 40.937694,111.08346 16.273651,156.49739 6.6223913,205.21333 3.1339017,220.73777 1.7881685,236.62968 1.987367,252.5228 c -0.2244869,17.78011 0.4382159,35.66132 4.3576442,53.07092 7.4631218,37.4696 23.3707208,73.22079 46.4505078,103.68857 3.373242,3.85093 5.846555,9.05212 10.503402,11.48266 4.560523,1.33672 6.314532,-3.95433 7.408232,-7.24564 23.826252,-66.37999 57.400617,-129.32309 98.829357,-186.42868 15.85576,-21.5905 32.76317,-42.42866 51.67678,-61.44157 1.54045,-3.72044 -3.94513,-5.71981 -5.67661,-8.48113 C 188.4302,129.13207 158.48269,103.67634 125.12344,83.353266 113.9845,76.804728 103.06002,69.492908 90.872575,65.043899 c -0.416902,-0.09264 -0.845003,-0.15382 -1.273061,-0.128871 z"
   id="path58" /><path
   style="fill:#212529;stroke-width:0.616655"
   d="m 266.15327,222.26574 c -5.25818,1.11965 -7.71976,6.90901 -11.35076,10.32287 -43.96693,53.01485 -76.564,114.79324 -99.95208,179.38893 -7.42618,21.15602 -13.85979,42.72638 -18.39474,64.69229 -1.48358,4.36933 3.81612,5.88602 6.6694,7.55021 36.15174,18.09962 76.76323,27.0304 117.11266,26.5898 24.86334,-0.79227 49.72434,-4.30778 73.41575,-12.06513 15.43552,-5.13342 30.79876,-11.09573 44.7154,-19.58176 2.43133,-2.61032 -0.35172,-6.47601 -0.47756,-9.52827 -20.00844,-87.1083 -55.51384,-171.02859 -106.77593,-244.39406 -1.22013,-1.52063 -2.85533,-3.09835 -4.96214,-2.97488 z"
   id="path60" /><path
   style="fill:#212529;stroke-width:0.616655"
   d="m 257.22621,1.4633523 c -19.78098,-0.079114 -39.5902,1.6703293 -58.8365,6.3832272 -8.36274,2.1873665 -17.02658,3.8679755 -24.93469,7.3939635 -3.27252,2.358739 -0.74809,6.932177 2.35461,8.096011 41.43927,24.286609 76.48875,57.681215 108.59577,93.032456 51.79342,57.92286 95.14282,123.13009 129.20366,192.92881 15.69663,32.27185 28.84761,65.8427 39.3222,100.14171 2.69513,2.54047 7.07392,0.50605 8.57652,-2.48308 27.57049,-37.46104 44.62831,-82.58204 48.57389,-128.92829 0.57754,-18.39077 0.96564,-36.90903 -1.11792,-55.21923 C 501.72351,168.8191 477.0905,117.19638 438.79325,78.343581 399.38123,37.486984 345.91168,10.629596 289.60416,3.4132793 278.8731,1.8816242 268.06124,1.2919439 257.22621,1.4633523 Z"
   id="path62" /></svg>
