<?xml version="1.0" encoding="UTF-8" standalone="no"?>
<svg
   xmlns:dc="http://purl.org/dc/elements/1.1/"
   xmlns:cc="http://creativecommons.org/ns#"
   xmlns:rdf="http://www.w3.org/1999/02/22-rdf-syntax-ns#"
   xmlns:svg="http://www.w3.org/2000/svg"
   xmlns="http://www.w3.org/2000/svg"
   xmlns:sodipodi="http://sodipodi.sourceforge.net/DTD/sodipodi-0.dtd"
   xmlns:inkscape="http://www.inkscape.org/namespaces/inkscape"
   version="1.1"
   id="Capa_1"
   x="0px"
   y="0px"
   width="550.801px"
   height="550.801px"
   viewBox="0 0 550.801 550.801"
   style="enable-background:new 0 0 550.801 550.801;"
   xml:space="preserve"
   sodipodi:docname="xml.svg"
   inkscape:version="1.0.2 (e86c870879, 2021-01-15)"><metadata
   id="metadata116"><rdf:RDF><cc:Work
       rdf:about=""><dc:format>image/svg+xml</dc:format><dc:type
         rdf:resource="http://purl.org/dc/dcmitype/StillImage" /></cc:Work></rdf:RDF></metadata><defs
   id="defs114" /><sodipodi:namedview
   pagecolor="#ffffff"
   bordercolor="#666666"
   borderopacity="1"
   objecttolerance="10"
   gridtolerance="10"
   guidetolerance="10"
   inkscape:pageopacity="0"
   inkscape:pageshadow="2"
   inkscape:window-width="2532"
   inkscape:window-height="1026"
   id="namedview112"
   showgrid="false"
   inkscape:zoom="1.5068963"
   inkscape:cx="275.40051"
   inkscape:cy="274.40509"
   inkscape:window-x="909"
   inkscape:window-y="226"
   inkscape:window-maximized="0"
   inkscape:current-layer="Capa_1" />
<g
   id="g79">
	<path
   d="M488.426,197.019H475.2v-63.816c0-0.401-0.063-0.799-0.116-1.205c-0.021-2.534-0.827-5.023-2.562-6.992L366.325,3.691   c-0.032-0.031-0.063-0.042-0.085-0.073c-0.633-0.707-1.371-1.298-2.151-1.804c-0.231-0.158-0.464-0.287-0.706-0.422   c-0.676-0.366-1.393-0.675-2.131-0.896c-0.2-0.053-0.38-0.135-0.58-0.19C359.87,0.119,359.037,0,358.193,0H97.2   c-11.918,0-21.6,9.693-21.6,21.601v175.413H62.377c-17.049,0-30.873,13.818-30.873,30.87v160.542   c0,17.044,13.824,30.876,30.873,30.876h13.224V529.2c0,11.907,9.682,21.601,21.6,21.601h356.4c11.907,0,21.6-9.693,21.6-21.601   V419.302h13.226c17.044,0,30.871-13.827,30.871-30.87V227.89C519.297,210.838,505.47,197.019,488.426,197.019z M97.2,21.605   h250.193v110.51c0,5.967,4.841,10.8,10.8,10.8h95.407v54.108H97.2V21.605z M369.531,374.53h-32.058l-2.156-55.519   c-0.644-17.434-1.298-38.518-1.298-59.611h-0.633c-4.514,18.516-10.547,39.166-16.137,56.162l-17.645,56.601h-25.618   l-15.494-56.157c-4.725-16.996-9.671-37.658-13.123-56.6h-0.43c-0.854,19.585-1.508,41.961-2.586,60.038l-2.576,55.086h-30.343   l9.26-145.035h43.677l14.207,48.421c4.517,16.774,9.041,34.847,12.258,51.843h0.654c4.081-16.77,9.038-35.923,13.774-52.064   l15.493-48.199h42.82L369.531,374.53z M69.992,374.53l41.955-73.385l-40.444-71.65h37.655l12.688,26.465   c4.316,8.828,7.533,15.928,10.99,24.092h0.422c3.438-9.242,6.23-15.694,9.893-24.092l12.274-26.465h37.434l-40.89,70.796   l43.044,74.239h-37.866l-13.134-26.257c-5.376-10.108-8.817-17.639-12.909-26.04h-0.433c-3.009,8.401-6.674,15.932-11.19,26.04   l-12.042,26.257H69.992z M453.601,523.353H97.2V419.302h356.4V523.353z M485.325,374.53h-90.608V229.495h32.933v117.497h57.682   v27.538H485.325z"
   id="path77" />
</g>
<g
   id="g81">
</g>
<g
   id="g83">
</g>
<g
   id="g85">
</g>
<g
   id="g87">
</g>
<g
   id="g89">
</g>
<g
   id="g91">
</g>
<g
   id="g93">
</g>
<g
   id="g95">
</g>
<g
   id="g97">
</g>
<g
   id="g99">
</g>
<g
   id="g101">
</g>
<g
   id="g103">
</g>
<g
   id="g105">
</g>
<g
   id="g107">
</g>
<g
   id="g109">
</g>
<path
   style="fill:#212529;stroke-width:0.663616"
   d="M 266.78518,0.43290558 C 208.4937,0.50086686 150.20224,0.58659798 91.910774,0.66361569 83.388988,3.9670176 75.27792,11.795003 76.322067,21.638332 75.498111,80.188719 75.904414,138.75209 75.62497,197.30772 c -10.434836,0.65055 -22.298358,-1.356 -30.970892,5.93755 -6.341147,4.9247 -11.929485,12.23675 -12.474527,20.39321 0.0767,53.88961 -0.657775,107.78558 0.0253,161.67119 0.157982,7.27884 0.294081,15.22696 5.549958,20.90868 6.963245,10.65139 20.454424,13.50043 32.374595,12.85496 5.634729,-1.6014 6.212091,1.87166 5.502405,6.63612 0.352385,34.92589 -0.272023,69.8735 0.810223,104.78492 -0.199847,5.47397 1.951189,10.64722 6.299959,14.05287 4.333762,4.69049 10.779496,5.86355 16.888897,5.38737 94.311652,0.74098 188.629452,0.16803 282.943532,0.25485 25.43861,-0.0173 50.87722,-0.0347 76.31583,-0.052 8.55434,-3.30447 16.62116,-11.17798 15.65145,-21.02723 0.67999,-36.67305 0.40201,-73.35867 0.64991,-110.03687 10.82281,0.0435 22.97125,0.99434 31.74597,-6.67634 8.14057,-6.03913 12.50235,-16.13373 11.72604,-26.18949 0.49828,-55.07215 -0.0622,-110.14939 -0.048,-165.22345 -3.94514,-12.80559 -15.84069,-23.96108 -29.83492,-23.29286 -4.52089,-0.16704 -9.0439,-0.26951 -13.5658,-0.40548 -0.40152,-22.74962 0.32382,-45.55154 -0.98506,-68.26687 -2.02318,-4.83832 -6.77218,-8.2247 -9.81398,-12.49773 C 431.74309,79.036928 399.38965,41.253217 365.83691,4.5514256 363.79083,1.3315795 360.27193,0.47477588 356.67056,0.77253169 326.71557,0.17075197 296.74496,0.50489528 266.78518,0.43290558 Z M 222.31126,21.56751 c 41.80779,0 83.61557,0 125.42336,0 0.19892,37.072947 -0.42873,74.161164 0.39403,111.22433 -0.0906,5.15715 4.55484,9.93035 9.87826,8.97579 31.96237,0.64608 63.93836,0.36346 95.90622,0.60256 0,18.35183 0,36.70365 0,55.05548 -119.00841,0 -238.01683,0 -357.025239,0 0,-58.61939 0,-117.238776 0,-175.85816 41.807789,0 83.615579,0 125.423369,0 z M 90.255622,229.43476 c 6.439146,0.0588 12.878298,0.11751 19.317438,0.17627 7.26243,14.81203 14.07636,29.87507 21.36402,44.65278 2.84346,2.49761 5.22618,-1.9069 5.90255,-4.24869 5.7231,-13.61696 11.85342,-27.057 18.17814,-40.40409 12.64728,0.0757 25.40288,-0.68973 37.98682,0.2009 -12.86902,23.08224 -26.92502,45.52338 -39.03408,69.01603 -1.67482,3.4806 2.52791,6.50731 3.47286,9.67646 12.15678,22.10502 25.48496,43.93503 37.56114,65.84223 -12.67879,0.45339 -25.37391,0.17722 -38.0594,0.24885 -7.84047,-15.02533 -14.67056,-30.61027 -23.16433,-45.27492 -1.04479,-2.70258 -4.45028,-2.89071 -5.32189,0.0337 -7.09943,14.96853 -13.62155,30.22237 -20.62134,45.24511 -12.762937,0.003 -25.525874,0.007 -38.288811,0.0117 14.078643,-24.45672 28.013094,-48.99655 42.022941,-73.49284 -13.547486,-23.95124 -26.995262,-47.9594 -40.632199,-71.85974 6.438713,0.0588 12.877427,0.11752 19.316141,0.17628 z m 271.688418,2.65576 c 2.74987,47.49443 5.5264,94.99914 7.6899,142.52054 -10.71596,-0.33005 -21.59644,0.6838 -32.21647,-0.59233 -0.95669,-8.12858 -0.68327,-16.76468 -1.21069,-25.07505 -0.9438,-24.6457 -1.89725,-49.2916 -2.57917,-73.94626 -4.78494,-0.96753 -4.98955,4.73283 -6.13067,7.83248 -8.90619,29.78775 -18.08734,59.59935 -27.6256,89.12799 -8.5521,1.41695 -17.46279,0.30276 -26.14801,0.66232 -8.5434,-32.05143 -18.163,-63.84335 -25.19925,-96.27612 -5.42204,-1.22317 -3.98655,4.04904 -4.28695,7.67704 -1.1256,30.20533 -2.97081,60.38449 -4.00825,90.58993 -10.42343,0 -20.84686,0 -31.27029,0 3.5096,-48.21385 6.21343,-96.61788 9.46948,-144.76802 14.32264,-0.86161 28.76163,-0.7457 43.10132,-0.19831 3.08386,0.45002 1.97225,5.11321 3.37974,7.16427 8.01461,27.51754 16.31198,54.99354 22.25631,83.05376 4.98361,1.61995 5.25912,-2.86238 6.10021,-6.61423 7.18553,-28.22326 16.10465,-55.9544 25.10916,-83.6375 14.40383,-0.11664 28.80767,-0.23329 43.2115,-0.34995 0.11924,0.94314 0.23848,1.88629 0.35773,2.82944 z m 49.16588,-2.8113 c 5.64074,0 11.28147,0 16.9222,0 0,39.15333 0,78.30665 0,117.45998 19.24486,0 38.48971,0 57.73457,0 0,9.29062 0,18.58124 0,27.87186 -30.52632,0 -61.05265,0 -91.57897,0 0,-48.44395 0,-96.88789 0,-145.33184 5.64074,0 11.28147,0 16.9222,0 z M 275.40051,419.07331 c 59.50421,0 119.00841,0 178.51262,0 0,34.95043 0,69.90085 0,104.85128 -119.00841,0 -238.01683,0 -357.025239,0 0,-34.95043 0,-69.90085 0,-104.85128 59.504209,0 119.008409,0 178.512619,0 z"
   id="path118" /></svg>
